%TF.GenerationSoftware,KiCad,Pcbnew,(5.1.12)-1*%
%TF.CreationDate,2021-12-22T01:37:08+01:00*%
%TF.ProjectId,PCB-rafballop,5043422d-7261-4666-9261-6c6c6f702e6b,rev?*%
%TF.SameCoordinates,Original*%
%TF.FileFunction,Copper,L2,Bot*%
%TF.FilePolarity,Positive*%
%FSLAX46Y46*%
G04 Gerber Fmt 4.6, Leading zero omitted, Abs format (unit mm)*
G04 Created by KiCad (PCBNEW (5.1.12)-1) date 2021-12-22 01:37:08*
%MOMM*%
%LPD*%
G01*
G04 APERTURE LIST*
%TA.AperFunction,ComponentPad*%
%ADD10C,1.524000*%
%TD*%
%TA.AperFunction,ComponentPad*%
%ADD11R,1.524000X1.524000*%
%TD*%
%TA.AperFunction,ComponentPad*%
%ADD12C,2.300000*%
%TD*%
%TA.AperFunction,ComponentPad*%
%ADD13R,2.300000X2.000000*%
%TD*%
%TA.AperFunction,ComponentPad*%
%ADD14O,2.400000X2.400000*%
%TD*%
%TA.AperFunction,ComponentPad*%
%ADD15C,2.400000*%
%TD*%
%TA.AperFunction,ComponentPad*%
%ADD16C,1.498600*%
%TD*%
%TA.AperFunction,ComponentPad*%
%ADD17R,1.498600X1.498600*%
%TD*%
%TA.AperFunction,ComponentPad*%
%ADD18C,1.800000*%
%TD*%
%TA.AperFunction,ComponentPad*%
%ADD19R,1.508000X1.508000*%
%TD*%
%TA.AperFunction,ComponentPad*%
%ADD20C,1.508000*%
%TD*%
%TA.AperFunction,ComponentPad*%
%ADD21O,1.700000X1.700000*%
%TD*%
%TA.AperFunction,ComponentPad*%
%ADD22R,1.700000X1.700000*%
%TD*%
%TA.AperFunction,ComponentPad*%
%ADD23O,1.980000X3.960000*%
%TD*%
%TA.AperFunction,ComponentPad*%
%ADD24R,1.980000X3.960000*%
%TD*%
%TA.AperFunction,ComponentPad*%
%ADD25O,1.727200X2.032000*%
%TD*%
%TA.AperFunction,ComponentPad*%
%ADD26C,1.778000*%
%TD*%
%TA.AperFunction,Conductor*%
%ADD27C,0.250000*%
%TD*%
%TA.AperFunction,Conductor*%
%ADD28C,0.406400*%
%TD*%
%TA.AperFunction,Conductor*%
%ADD29C,1.000000*%
%TD*%
%TA.AperFunction,Conductor*%
%ADD30C,0.254000*%
%TD*%
%TA.AperFunction,Conductor*%
%ADD31C,0.100000*%
%TD*%
G04 APERTURE END LIST*
D10*
%TO.P,U1,8*%
%TO.N,PROMINI_IRQ*%
X188380000Y-91540000D03*
%TO.P,U1,7*%
%TO.N,PROMINI_MISO*%
X188380000Y-89000000D03*
%TO.P,U1,6*%
%TO.N,PROMINI_MOSI*%
X190920000Y-91540000D03*
%TO.P,U1,5*%
%TO.N,PROMINI_SCK*%
X190920000Y-89000000D03*
%TO.P,U1,4*%
%TO.N,PROMINI_CSN*%
X193460000Y-91540000D03*
%TO.P,U1,3*%
%TO.N,PROMINI_CE*%
X193460000Y-89000000D03*
%TO.P,U1,2*%
%TO.N,VCC*%
X196000000Y-91540000D03*
D11*
%TO.P,U1,1*%
%TO.N,GND*%
X196000000Y-89000000D03*
%TD*%
D12*
%TO.P,PS1,4*%
%TO.N,GND*%
X146400000Y-80200000D03*
%TO.P,PS1,2*%
%TO.N,Net-(J1-Pad1)*%
X117000000Y-75000000D03*
D13*
%TO.P,PS1,1*%
%TO.N,AC+*%
X117000000Y-70000000D03*
D12*
%TO.P,PS1,3*%
%TO.N,VDD*%
X146400000Y-64800000D03*
%TD*%
D14*
%TO.P,F3,2*%
%TO.N,Net-(F2-Pad2)*%
X102760000Y-116000000D03*
D15*
%TO.P,F3,1*%
%TO.N,AC+*%
X118000000Y-116000000D03*
%TD*%
%TO.P,R1,2*%
%TO.N,PROMINI_PIN5*%
%TA.AperFunction,SMDPad,CuDef*%
G36*
G01*
X168625001Y-114100000D02*
X167374999Y-114100000D01*
G75*
G02*
X167125000Y-113850001I0J249999D01*
G01*
X167125000Y-113049999D01*
G75*
G02*
X167374999Y-112800000I249999J0D01*
G01*
X168625001Y-112800000D01*
G75*
G02*
X168875000Y-113049999I0J-249999D01*
G01*
X168875000Y-113850001D01*
G75*
G02*
X168625001Y-114100000I-249999J0D01*
G01*
G37*
%TD.AperFunction*%
%TO.P,R1,1*%
%TO.N,Net-(R1-Pad1)*%
%TA.AperFunction,SMDPad,CuDef*%
G36*
G01*
X168625001Y-117200000D02*
X167374999Y-117200000D01*
G75*
G02*
X167125000Y-116950001I0J249999D01*
G01*
X167125000Y-116149999D01*
G75*
G02*
X167374999Y-115900000I249999J0D01*
G01*
X168625001Y-115900000D01*
G75*
G02*
X168875000Y-116149999I0J-249999D01*
G01*
X168875000Y-116950001D01*
G75*
G02*
X168625001Y-117200000I-249999J0D01*
G01*
G37*
%TD.AperFunction*%
%TD*%
D16*
%TO.P,U2,3*%
%TO.N,GND*%
X141460000Y-115000000D03*
%TO.P,U2,2*%
%TO.N,Net-(R1-Pad1)*%
X144000000Y-113730000D03*
D17*
%TO.P,U2,1*%
%TO.N,BJT_C*%
X141460000Y-112460000D03*
%TD*%
D18*
%TO.P,RV1,2*%
%TO.N,Net-(J1-Pad1)*%
X113500000Y-94000000D03*
%TO.P,RV1,1*%
%TO.N,AC+*%
X121000000Y-97000000D03*
%TD*%
D19*
%TO.P,K1,1*%
%TO.N,AC+*%
X120840000Y-86600000D03*
D20*
%TO.P,K1,2*%
%TO.N,TB2*%
X128460000Y-86600000D03*
%TO.P,K1,3*%
%TO.N,VDD*%
X138620000Y-86600000D03*
%TO.P,K1,4*%
%TO.N,BJT_C*%
X141160000Y-86600000D03*
%TD*%
D21*
%TO.P,J7,3*%
%TO.N,PROMINI_A2*%
X168920000Y-69000000D03*
%TO.P,J7,2*%
%TO.N,GND*%
X171460000Y-69000000D03*
D22*
%TO.P,J7,1*%
%TO.N,VCC*%
X174000000Y-69000000D03*
%TD*%
D21*
%TO.P,J6,3*%
%TO.N,PROMINI_A3*%
X165080000Y-69000000D03*
%TO.P,J6,2*%
%TO.N,GND*%
X162540000Y-69000000D03*
D22*
%TO.P,J6,1*%
%TO.N,VCC*%
X160000000Y-69000000D03*
%TD*%
D21*
%TO.P,J5,4*%
%TO.N,VCC*%
X147000000Y-94620000D03*
%TO.P,J5,3*%
%TO.N,PROMINI_A4*%
X147000000Y-92080000D03*
%TO.P,J5,2*%
%TO.N,PROMINI_A5*%
X147000000Y-89540000D03*
D22*
%TO.P,J5,1*%
%TO.N,GND*%
X147000000Y-87000000D03*
%TD*%
D21*
%TO.P,J4,3*%
%TO.N,VCC*%
X154920000Y-111000000D03*
%TO.P,J4,2*%
%TO.N,GND*%
X157460000Y-111000000D03*
D22*
%TO.P,J4,1*%
%TO.N,PROMINI_PIN4*%
X160000000Y-111000000D03*
%TD*%
D21*
%TO.P,J3,3*%
%TO.N,VCC*%
X154920000Y-106000000D03*
%TO.P,J3,2*%
%TO.N,GND*%
X157460000Y-106000000D03*
D22*
%TO.P,J3,1*%
%TO.N,PROMINI_PIN3*%
X160000000Y-106000000D03*
%TD*%
D23*
%TO.P,J2,2*%
%TO.N,Net-(J1-Pad1)*%
X107000000Y-106000000D03*
D24*
%TO.P,J2,1*%
%TO.N,Net-(F1-Pad2)*%
X112000000Y-106000000D03*
%TD*%
D23*
%TO.P,J1,2*%
%TO.N,Net-(F2-Pad1)*%
X105000000Y-68000000D03*
D24*
%TO.P,J1,1*%
%TO.N,Net-(J1-Pad1)*%
X110000000Y-68000000D03*
%TD*%
D14*
%TO.P,F2,2*%
%TO.N,Net-(F2-Pad2)*%
X105000000Y-93240000D03*
D15*
%TO.P,F2,1*%
%TO.N,Net-(F2-Pad1)*%
X105000000Y-78000000D03*
%TD*%
D14*
%TO.P,F1,2*%
%TO.N,Net-(F1-Pad2)*%
X116760000Y-106000000D03*
D15*
%TO.P,F1,1*%
%TO.N,TB2*%
X132000000Y-106000000D03*
%TD*%
D25*
%TO.P,P1,1*%
%TO.N,/1(Tx)*%
X152090000Y-98570000D03*
%TO.P,P1,2*%
%TO.N,/0(Rx)*%
X154630000Y-98570000D03*
%TO.P,P1,3*%
%TO.N,/Reset*%
X157170000Y-98570000D03*
%TO.P,P1,4*%
%TO.N,GND*%
X159710000Y-98570000D03*
%TO.P,P1,5*%
%TO.N,PROMINI_IRQ*%
X162250000Y-98570000D03*
%TO.P,P1,6*%
%TO.N,PROMINI_PIN3*%
X164790000Y-98570000D03*
%TO.P,P1,7*%
%TO.N,PROMINI_PIN4*%
X167330000Y-98570000D03*
%TO.P,P1,8*%
%TO.N,PROMINI_PIN5*%
X169870000Y-98570000D03*
%TO.P,P1,9*%
%TO.N,/6(\u002A\u002A)*%
X172410000Y-98570000D03*
%TO.P,P1,10*%
%TO.N,/7*%
X174950000Y-98570000D03*
%TO.P,P1,11*%
%TO.N,/8*%
X177490000Y-98570000D03*
%TO.P,P1,12*%
%TO.N,PROMINI_CE*%
X180030000Y-98570000D03*
%TD*%
D26*
%TO.P,P3,1*%
%TO.N,PROMINI_A5*%
X160980000Y-85870000D03*
%TO.P,P3,2*%
%TO.N,PROMINI_A4*%
X163520000Y-85870000D03*
%TD*%
D25*
%TO.P,P4,1*%
%TO.N,VDD*%
X152090000Y-83330000D03*
%TO.P,P4,2*%
%TO.N,GND*%
X154630000Y-83330000D03*
%TO.P,P4,3*%
%TO.N,/Reset*%
X157170000Y-83330000D03*
%TO.P,P4,4*%
%TO.N,VCC*%
X159710000Y-83330000D03*
%TO.P,P4,5*%
%TO.N,PROMINI_A3*%
X162250000Y-83330000D03*
%TO.P,P4,6*%
%TO.N,PROMINI_A2*%
X164790000Y-83330000D03*
%TO.P,P4,7*%
%TO.N,/A1*%
X167330000Y-83330000D03*
%TO.P,P4,8*%
%TO.N,/A0*%
X169870000Y-83330000D03*
%TO.P,P4,9*%
%TO.N,PROMINI_SCK*%
X172410000Y-83330000D03*
%TO.P,P4,10*%
%TO.N,PROMINI_MISO*%
X174950000Y-83330000D03*
%TO.P,P4,11*%
%TO.N,PROMINI_MOSI*%
X177490000Y-83330000D03*
%TO.P,P4,12*%
%TO.N,PROMINI_CSN*%
X180030000Y-83330000D03*
%TD*%
D27*
%TO.N,*%
X183000000Y-66000000D02*
X183000000Y-70000000D01*
X183000000Y-66000000D02*
X184000000Y-66000000D01*
X184000000Y-66000000D02*
X185000000Y-67000000D01*
X185000000Y-67000000D02*
X184000000Y-68000000D01*
X184000000Y-68000000D02*
X183000000Y-68000000D01*
X186000000Y-66000000D02*
X186000000Y-70000000D01*
X186000000Y-66000000D02*
X187000000Y-66000000D01*
X187000000Y-66000000D02*
X188000000Y-67000000D01*
X188000000Y-67000000D02*
X187000000Y-68000000D01*
X187000000Y-68000000D02*
X186000000Y-68000000D01*
X187000000Y-68000000D02*
X188000000Y-69000000D01*
X187000000Y-70000000D02*
X188000000Y-69000000D01*
X187000000Y-70000000D02*
X186000000Y-70000000D01*
X189000000Y-66000000D02*
X189000000Y-70000000D01*
X189000000Y-70000000D02*
X191000000Y-70000000D01*
X182000000Y-71000000D02*
X192000000Y-71000000D01*
X192000000Y-71000000D02*
X192000000Y-65000000D01*
X192000000Y-65000000D02*
X182000000Y-65000000D01*
X182000000Y-65000000D02*
X182000000Y-71000000D01*
X184000000Y-69000000D02*
X185000000Y-70000000D01*
X184000000Y-68000000D02*
X184000000Y-69000000D01*
D28*
%TO.N,GND*%
X154630000Y-83330000D02*
X154630000Y-83370000D01*
X159710000Y-98831531D02*
X159710000Y-98570000D01*
X159710000Y-98570000D02*
X159710000Y-98831532D01*
X146400000Y-86400000D02*
X147000000Y-87000000D01*
X172000000Y-69080000D02*
X171920000Y-69000000D01*
%TO.N,VCC*%
X160306061Y-83330000D02*
X159710000Y-83330000D01*
X147000000Y-94620000D02*
X146620000Y-95000000D01*
X151920000Y-106000000D02*
X147000000Y-106000000D01*
X147000000Y-94620000D02*
X147000000Y-106000000D01*
X151920000Y-111000000D02*
X147000000Y-111000000D01*
X147000000Y-106000000D02*
X147000000Y-111000000D01*
X160000000Y-83040000D02*
X159710000Y-83330000D01*
X160000000Y-69000000D02*
X160000000Y-83040000D01*
X151920000Y-111000000D02*
X154920000Y-111000000D01*
X151920000Y-106000000D02*
X154920000Y-106000000D01*
X198000000Y-63000000D02*
X198000000Y-91000000D01*
X197000000Y-62000000D02*
X198000000Y-63000000D01*
X196000000Y-91540000D02*
X197460000Y-91540000D01*
X198000000Y-91000000D02*
X197460000Y-91540000D01*
X174000000Y-69000000D02*
X174000000Y-62000000D01*
X174000000Y-62000000D02*
X197000000Y-62000000D01*
X160000000Y-69000000D02*
X160000000Y-62000000D01*
X160000000Y-62000000D02*
X174000000Y-62000000D01*
X169000000Y-115000000D02*
X148000000Y-115000000D01*
X170000000Y-116000000D02*
X169000000Y-115000000D01*
X169000000Y-118000000D02*
X170000000Y-117000000D01*
X148000000Y-115000000D02*
X147000000Y-114000000D01*
X170000000Y-117000000D02*
X170000000Y-116000000D01*
X147000000Y-114000000D02*
X147000000Y-111000000D01*
X136000000Y-117000000D02*
X137000000Y-118000000D01*
X137000000Y-118000000D02*
X169000000Y-118000000D01*
X160000000Y-62000000D02*
X137000000Y-62000000D01*
X137000000Y-62000000D02*
X136000000Y-63000000D01*
X136000000Y-63000000D02*
X136000000Y-117000000D01*
D29*
%TO.N,Net-(F1-Pad2)*%
X116760000Y-106000000D02*
X112000000Y-106000000D01*
%TO.N,TB2*%
X132000000Y-99000000D02*
X132000000Y-106000000D01*
X128460000Y-86600000D02*
X128460000Y-94460000D01*
X132000000Y-98000000D02*
X132000000Y-99000000D01*
X128460000Y-94460000D02*
X132000000Y-98000000D01*
%TO.N,Net-(F2-Pad2)*%
X105000000Y-97000000D02*
X105000000Y-93240000D01*
X102760000Y-99240000D02*
X105000000Y-97000000D01*
X102760000Y-116000000D02*
X102760000Y-99240000D01*
%TO.N,Net-(F2-Pad1)*%
X105000000Y-68000000D02*
X105000000Y-78000000D01*
%TO.N,AC+*%
X118000000Y-116000000D02*
X120840000Y-113160000D01*
X119000000Y-70000000D02*
X117000000Y-70000000D01*
X120840000Y-71840000D02*
X119000000Y-70000000D01*
X120840000Y-97160000D02*
X121000000Y-97000000D01*
X121000000Y-86760000D02*
X120840000Y-86600000D01*
X120840000Y-71840000D02*
X120840000Y-86600000D01*
X120840000Y-96840000D02*
X121000000Y-97000000D01*
X120840000Y-86600000D02*
X120840000Y-96840000D01*
X121000000Y-97000000D02*
X121000000Y-113000000D01*
%TO.N,Net-(J1-Pad1)*%
X117000000Y-75000000D02*
X110000000Y-75000000D01*
X110000000Y-75000000D02*
X110000000Y-94000000D01*
X110000000Y-68000000D02*
X110000000Y-75000000D01*
X110000000Y-97000000D02*
X110000000Y-94000000D01*
X107000000Y-100000000D02*
X110000000Y-97000000D01*
X107000000Y-106000000D02*
X107000000Y-100000000D01*
X113500000Y-94000000D02*
X110000000Y-94000000D01*
D28*
%TO.N,PROMINI_PIN3*%
X164790000Y-105210000D02*
X164790000Y-102790000D01*
X164000000Y-106000000D02*
X164790000Y-105210000D01*
X164790000Y-102790000D02*
X164790000Y-98570000D01*
X164790000Y-103210000D02*
X164790000Y-102790000D01*
X164000000Y-106000000D02*
X160000000Y-106000000D01*
%TO.N,PROMINI_PIN4*%
X167330000Y-108670000D02*
X167330000Y-98570000D01*
X167330000Y-109670000D02*
X167330000Y-108670000D01*
X160000000Y-111000000D02*
X166000000Y-111000000D01*
X166000000Y-111000000D02*
X167330000Y-109670000D01*
%TO.N,PROMINI_A4*%
X163520000Y-89480000D02*
X163520000Y-85870000D01*
X160920000Y-92080000D02*
X163520000Y-89480000D01*
X147000000Y-92080000D02*
X160920000Y-92080000D01*
%TO.N,PROMINI_A5*%
X160980000Y-88020000D02*
X160980000Y-85870000D01*
X159460000Y-89540000D02*
X160980000Y-88020000D01*
X147000000Y-89540000D02*
X159460000Y-89540000D01*
%TO.N,PROMINI_A3*%
X165080000Y-74920000D02*
X165080000Y-69000000D01*
X162250000Y-77750000D02*
X165080000Y-74920000D01*
X162250000Y-83330000D02*
X162250000Y-77750000D01*
%TO.N,PROMINI_A2*%
X164790000Y-79210000D02*
X164790000Y-83330000D01*
X168920000Y-75080000D02*
X164790000Y-79210000D01*
X168920000Y-69000000D02*
X168920000Y-75080000D01*
%TO.N,VDD*%
X152090000Y-80090000D02*
X152090000Y-83330000D01*
X150800000Y-64800000D02*
X146400000Y-64800000D01*
X152090000Y-66090000D02*
X150800000Y-64800000D01*
X152090000Y-83330000D02*
X152090000Y-66090000D01*
X138620000Y-86600000D02*
X138620000Y-84380000D01*
X139670000Y-83330000D02*
X152090000Y-83330000D01*
X138620000Y-84380000D02*
X139670000Y-83330000D01*
%TO.N,BJT_C*%
X141160000Y-112160000D02*
X141460000Y-112460000D01*
X141160000Y-86600000D02*
X141160000Y-112160000D01*
%TO.N,PROMINI_IRQ*%
X162250000Y-94750000D02*
X162250000Y-98570000D01*
X164080000Y-92920000D02*
X162250000Y-94750000D01*
X187000000Y-92920000D02*
X164080000Y-92920000D01*
X188380000Y-91540000D02*
X187000000Y-92920000D01*
%TO.N,PROMINI_PIN5*%
X169870000Y-111580000D02*
X168000000Y-113450000D01*
X169870000Y-98570000D02*
X169870000Y-111580000D01*
%TO.N,PROMINI_CE*%
X180030000Y-95970000D02*
X180030000Y-98570000D01*
X181000000Y-95000000D02*
X180030000Y-95970000D01*
X190000000Y-95000000D02*
X181000000Y-95000000D01*
X192085201Y-92914799D02*
X190000000Y-95000000D01*
X192085201Y-90914799D02*
X192085201Y-92914799D01*
X193460000Y-89540000D02*
X192085201Y-90914799D01*
X193460000Y-89000000D02*
X193460000Y-89540000D01*
%TO.N,PROMINI_SCK*%
X190920000Y-89000000D02*
X189545201Y-90374799D01*
X172410000Y-83330000D02*
X172410000Y-89410000D01*
X172410000Y-89410000D02*
X174000000Y-91000000D01*
X174000000Y-91000000D02*
X186000000Y-91000000D01*
X186625201Y-90374799D02*
X186500000Y-90500000D01*
X189545201Y-90374799D02*
X186625201Y-90374799D01*
X186000000Y-91000000D02*
X186500000Y-90500000D01*
%TO.N,PROMINI_MISO*%
X177000000Y-89000000D02*
X188380000Y-89000000D01*
X176000000Y-89000000D02*
X177000000Y-89000000D01*
X174950000Y-87950000D02*
X176000000Y-89000000D01*
X174950000Y-83330000D02*
X174950000Y-87950000D01*
%TO.N,PROMINI_MOSI*%
X190920000Y-90724498D02*
X190920000Y-91540000D01*
X192085201Y-89559297D02*
X190920000Y-90724498D01*
X192085201Y-88085201D02*
X192085201Y-89559297D01*
X191000000Y-87000000D02*
X192085201Y-88085201D01*
X178000000Y-87000000D02*
X191000000Y-87000000D01*
X177490000Y-86490000D02*
X178000000Y-87000000D01*
X177490000Y-83330000D02*
X177490000Y-86490000D01*
%TO.N,PROMINI_CSN*%
X194625201Y-90374799D02*
X193460000Y-91540000D01*
X193250402Y-85000000D02*
X194625201Y-86374799D01*
X194625201Y-86374799D02*
X194625201Y-90374799D01*
X193250402Y-85000000D02*
X181000000Y-85000000D01*
X181000000Y-85000000D02*
X180000000Y-84000000D01*
X180030000Y-83970000D02*
X180030000Y-83330000D01*
X180000000Y-84000000D02*
X180030000Y-83970000D01*
%TO.N,Net-(R1-Pad1)*%
X144000000Y-115000000D02*
X145550000Y-116550000D01*
X144000000Y-113730000D02*
X144000000Y-115000000D01*
X168000000Y-116550000D02*
X145550000Y-116550000D01*
%TD*%
D30*
%TO.N,GND*%
X198873000Y-118873000D02*
X135127000Y-118873000D01*
X135127000Y-63000000D01*
X135416994Y-63000000D01*
X135419800Y-63028491D01*
X135419801Y-116971499D01*
X135416994Y-117000000D01*
X135428196Y-117113739D01*
X135461373Y-117223107D01*
X135515248Y-117323901D01*
X135569584Y-117390110D01*
X135569588Y-117390114D01*
X135587753Y-117412248D01*
X135609887Y-117430413D01*
X136569582Y-118390108D01*
X136587752Y-118412248D01*
X136609890Y-118430416D01*
X136676098Y-118484753D01*
X136776893Y-118538628D01*
X136886260Y-118571805D01*
X137000000Y-118583007D01*
X137028501Y-118580200D01*
X168971509Y-118580200D01*
X169000000Y-118583006D01*
X169028491Y-118580200D01*
X169028501Y-118580200D01*
X169113739Y-118571805D01*
X169223107Y-118538628D01*
X169323901Y-118484753D01*
X169412248Y-118412248D01*
X169430418Y-118390108D01*
X170390109Y-117430417D01*
X170412248Y-117412248D01*
X170445316Y-117371955D01*
X170484753Y-117323902D01*
X170538628Y-117223107D01*
X170571805Y-117113740D01*
X170583007Y-117000000D01*
X170580200Y-116971499D01*
X170580200Y-116028501D01*
X170583007Y-116000000D01*
X170571805Y-115886260D01*
X170538628Y-115776893D01*
X170484753Y-115676098D01*
X170430416Y-115609890D01*
X170412248Y-115587752D01*
X170390108Y-115569582D01*
X169430416Y-114609890D01*
X169412248Y-114587752D01*
X169323901Y-114515247D01*
X169223107Y-114461372D01*
X169113739Y-114428195D01*
X169028501Y-114419800D01*
X169028491Y-114419800D01*
X169000000Y-114416994D01*
X168971509Y-114419800D01*
X168886516Y-114419800D01*
X168974356Y-114372848D01*
X169069646Y-114294646D01*
X169147848Y-114199356D01*
X169205958Y-114090641D01*
X169241741Y-113972678D01*
X169253824Y-113850001D01*
X169253824Y-113049999D01*
X169250839Y-113019688D01*
X170260114Y-112010413D01*
X170282248Y-111992248D01*
X170300413Y-111970114D01*
X170300416Y-111970111D01*
X170354752Y-111903902D01*
X170383563Y-111850000D01*
X170408628Y-111803107D01*
X170441805Y-111693739D01*
X170450200Y-111608501D01*
X170450200Y-111608492D01*
X170453006Y-111580001D01*
X170450200Y-111551510D01*
X170450200Y-99818977D01*
X170562575Y-99758912D01*
X170751481Y-99603881D01*
X170906512Y-99414974D01*
X171021710Y-99199453D01*
X171092649Y-98965599D01*
X171110600Y-98783339D01*
X171110600Y-98356661D01*
X171169400Y-98356661D01*
X171169400Y-98783340D01*
X171187351Y-98965600D01*
X171258290Y-99199454D01*
X171373489Y-99414975D01*
X171528520Y-99603881D01*
X171717426Y-99758912D01*
X171932947Y-99874110D01*
X172166801Y-99945049D01*
X172410000Y-99969002D01*
X172653200Y-99945049D01*
X172887054Y-99874110D01*
X173102575Y-99758912D01*
X173291481Y-99603881D01*
X173446512Y-99414974D01*
X173561710Y-99199453D01*
X173632649Y-98965599D01*
X173650600Y-98783339D01*
X173650600Y-98356661D01*
X173709400Y-98356661D01*
X173709400Y-98783340D01*
X173727351Y-98965600D01*
X173798290Y-99199454D01*
X173913489Y-99414975D01*
X174068520Y-99603881D01*
X174257426Y-99758912D01*
X174472947Y-99874110D01*
X174706801Y-99945049D01*
X174950000Y-99969002D01*
X175193200Y-99945049D01*
X175427054Y-99874110D01*
X175642575Y-99758912D01*
X175831481Y-99603881D01*
X175986512Y-99414974D01*
X176101710Y-99199453D01*
X176172649Y-98965599D01*
X176190600Y-98783339D01*
X176190600Y-98356661D01*
X176249400Y-98356661D01*
X176249400Y-98783340D01*
X176267351Y-98965600D01*
X176338290Y-99199454D01*
X176453489Y-99414975D01*
X176608520Y-99603881D01*
X176797426Y-99758912D01*
X177012947Y-99874110D01*
X177246801Y-99945049D01*
X177490000Y-99969002D01*
X177733200Y-99945049D01*
X177967054Y-99874110D01*
X178182575Y-99758912D01*
X178371481Y-99603881D01*
X178526512Y-99414974D01*
X178641710Y-99199453D01*
X178712649Y-98965599D01*
X178730600Y-98783339D01*
X178730600Y-98356660D01*
X178712649Y-98174400D01*
X178641710Y-97940546D01*
X178526512Y-97725025D01*
X178371481Y-97536119D01*
X178182574Y-97381088D01*
X177967053Y-97265890D01*
X177733199Y-97194951D01*
X177490000Y-97170998D01*
X177246800Y-97194951D01*
X177012946Y-97265890D01*
X176797425Y-97381088D01*
X176608519Y-97536119D01*
X176453488Y-97725026D01*
X176338290Y-97940547D01*
X176267351Y-98174401D01*
X176249400Y-98356661D01*
X176190600Y-98356661D01*
X176190600Y-98356660D01*
X176172649Y-98174400D01*
X176101710Y-97940546D01*
X175986512Y-97725025D01*
X175831481Y-97536119D01*
X175642574Y-97381088D01*
X175427053Y-97265890D01*
X175193199Y-97194951D01*
X174950000Y-97170998D01*
X174706800Y-97194951D01*
X174472946Y-97265890D01*
X174257425Y-97381088D01*
X174068519Y-97536119D01*
X173913488Y-97725026D01*
X173798290Y-97940547D01*
X173727351Y-98174401D01*
X173709400Y-98356661D01*
X173650600Y-98356661D01*
X173650600Y-98356660D01*
X173632649Y-98174400D01*
X173561710Y-97940546D01*
X173446512Y-97725025D01*
X173291481Y-97536119D01*
X173102574Y-97381088D01*
X172887053Y-97265890D01*
X172653199Y-97194951D01*
X172410000Y-97170998D01*
X172166800Y-97194951D01*
X171932946Y-97265890D01*
X171717425Y-97381088D01*
X171528519Y-97536119D01*
X171373488Y-97725026D01*
X171258290Y-97940547D01*
X171187351Y-98174401D01*
X171169400Y-98356661D01*
X171110600Y-98356661D01*
X171110600Y-98356660D01*
X171092649Y-98174400D01*
X171021710Y-97940546D01*
X170906512Y-97725025D01*
X170751481Y-97536119D01*
X170562574Y-97381088D01*
X170347053Y-97265890D01*
X170113199Y-97194951D01*
X169870000Y-97170998D01*
X169626800Y-97194951D01*
X169392946Y-97265890D01*
X169177425Y-97381088D01*
X168988519Y-97536119D01*
X168833488Y-97725026D01*
X168718290Y-97940547D01*
X168647351Y-98174401D01*
X168629400Y-98356661D01*
X168629400Y-98783340D01*
X168647351Y-98965600D01*
X168718290Y-99199454D01*
X168833489Y-99414975D01*
X168988520Y-99603881D01*
X169177426Y-99758912D01*
X169289800Y-99818977D01*
X169289801Y-111339672D01*
X168208298Y-112421176D01*
X167374999Y-112421176D01*
X167252322Y-112433259D01*
X167134359Y-112469042D01*
X167025644Y-112527152D01*
X166930354Y-112605354D01*
X166852152Y-112700644D01*
X166794042Y-112809359D01*
X166758259Y-112927322D01*
X166746176Y-113049999D01*
X166746176Y-113850001D01*
X166758259Y-113972678D01*
X166794042Y-114090641D01*
X166852152Y-114199356D01*
X166930354Y-114294646D01*
X167025644Y-114372848D01*
X167113484Y-114419800D01*
X148240326Y-114419800D01*
X147580200Y-113759674D01*
X147580200Y-111580200D01*
X153832232Y-111580200D01*
X153832647Y-111581202D01*
X153966927Y-111782167D01*
X154137833Y-111953073D01*
X154338798Y-112087353D01*
X154562097Y-112179847D01*
X154799151Y-112227000D01*
X155040849Y-112227000D01*
X155277903Y-112179847D01*
X155501202Y-112087353D01*
X155702167Y-111953073D01*
X155873073Y-111782167D01*
X156007353Y-111581202D01*
X156056231Y-111463202D01*
X156115843Y-111631252D01*
X156264822Y-111881355D01*
X156459731Y-112097588D01*
X156693080Y-112271641D01*
X156955901Y-112396825D01*
X157103110Y-112441476D01*
X157333000Y-112320155D01*
X157333000Y-111127000D01*
X157313000Y-111127000D01*
X157313000Y-110873000D01*
X157333000Y-110873000D01*
X157333000Y-109679845D01*
X157587000Y-109679845D01*
X157587000Y-110873000D01*
X157607000Y-110873000D01*
X157607000Y-111127000D01*
X157587000Y-111127000D01*
X157587000Y-112320155D01*
X157816890Y-112441476D01*
X157964099Y-112396825D01*
X158226920Y-112271641D01*
X158460269Y-112097588D01*
X158655178Y-111881355D01*
X158771176Y-111686620D01*
X158771176Y-111850000D01*
X158778455Y-111923905D01*
X158800012Y-111994970D01*
X158835019Y-112060463D01*
X158882131Y-112117869D01*
X158939537Y-112164981D01*
X159005030Y-112199988D01*
X159076095Y-112221545D01*
X159150000Y-112228824D01*
X160850000Y-112228824D01*
X160923905Y-112221545D01*
X160994970Y-112199988D01*
X161060463Y-112164981D01*
X161117869Y-112117869D01*
X161164981Y-112060463D01*
X161199988Y-111994970D01*
X161221545Y-111923905D01*
X161228824Y-111850000D01*
X161228824Y-111580200D01*
X165971509Y-111580200D01*
X166000000Y-111583006D01*
X166028491Y-111580200D01*
X166028501Y-111580200D01*
X166113739Y-111571805D01*
X166223107Y-111538628D01*
X166323901Y-111484753D01*
X166412248Y-111412248D01*
X166430418Y-111390108D01*
X167720115Y-110100412D01*
X167742248Y-110082248D01*
X167760413Y-110060114D01*
X167760416Y-110060111D01*
X167814752Y-109993902D01*
X167814753Y-109993901D01*
X167868628Y-109893107D01*
X167901805Y-109783739D01*
X167910200Y-109698501D01*
X167910200Y-109698492D01*
X167913006Y-109670001D01*
X167910200Y-109641510D01*
X167910200Y-99818977D01*
X168022575Y-99758912D01*
X168211481Y-99603881D01*
X168366512Y-99414974D01*
X168481710Y-99199453D01*
X168552649Y-98965599D01*
X168570600Y-98783339D01*
X168570600Y-98356660D01*
X168552649Y-98174400D01*
X168481710Y-97940546D01*
X168366512Y-97725025D01*
X168211481Y-97536119D01*
X168022574Y-97381088D01*
X167807053Y-97265890D01*
X167573199Y-97194951D01*
X167330000Y-97170998D01*
X167086800Y-97194951D01*
X166852946Y-97265890D01*
X166637425Y-97381088D01*
X166448519Y-97536119D01*
X166293488Y-97725026D01*
X166178290Y-97940547D01*
X166107351Y-98174401D01*
X166089400Y-98356661D01*
X166089400Y-98783340D01*
X166107351Y-98965600D01*
X166178290Y-99199454D01*
X166293489Y-99414975D01*
X166448520Y-99603881D01*
X166637426Y-99758912D01*
X166749801Y-99818977D01*
X166749800Y-108698500D01*
X166749801Y-108698510D01*
X166749800Y-109429673D01*
X165759674Y-110419800D01*
X161228824Y-110419800D01*
X161228824Y-110150000D01*
X161221545Y-110076095D01*
X161199988Y-110005030D01*
X161164981Y-109939537D01*
X161117869Y-109882131D01*
X161060463Y-109835019D01*
X160994970Y-109800012D01*
X160923905Y-109778455D01*
X160850000Y-109771176D01*
X159150000Y-109771176D01*
X159076095Y-109778455D01*
X159005030Y-109800012D01*
X158939537Y-109835019D01*
X158882131Y-109882131D01*
X158835019Y-109939537D01*
X158800012Y-110005030D01*
X158778455Y-110076095D01*
X158771176Y-110150000D01*
X158771176Y-110313380D01*
X158655178Y-110118645D01*
X158460269Y-109902412D01*
X158226920Y-109728359D01*
X157964099Y-109603175D01*
X157816890Y-109558524D01*
X157587000Y-109679845D01*
X157333000Y-109679845D01*
X157103110Y-109558524D01*
X156955901Y-109603175D01*
X156693080Y-109728359D01*
X156459731Y-109902412D01*
X156264822Y-110118645D01*
X156115843Y-110368748D01*
X156056231Y-110536798D01*
X156007353Y-110418798D01*
X155873073Y-110217833D01*
X155702167Y-110046927D01*
X155501202Y-109912647D01*
X155277903Y-109820153D01*
X155040849Y-109773000D01*
X154799151Y-109773000D01*
X154562097Y-109820153D01*
X154338798Y-109912647D01*
X154137833Y-110046927D01*
X153966927Y-110217833D01*
X153832647Y-110418798D01*
X153832232Y-110419800D01*
X147580200Y-110419800D01*
X147580200Y-106580200D01*
X153832232Y-106580200D01*
X153832647Y-106581202D01*
X153966927Y-106782167D01*
X154137833Y-106953073D01*
X154338798Y-107087353D01*
X154562097Y-107179847D01*
X154799151Y-107227000D01*
X155040849Y-107227000D01*
X155277903Y-107179847D01*
X155501202Y-107087353D01*
X155702167Y-106953073D01*
X155873073Y-106782167D01*
X156007353Y-106581202D01*
X156056231Y-106463202D01*
X156115843Y-106631252D01*
X156264822Y-106881355D01*
X156459731Y-107097588D01*
X156693080Y-107271641D01*
X156955901Y-107396825D01*
X157103110Y-107441476D01*
X157333000Y-107320155D01*
X157333000Y-106127000D01*
X157313000Y-106127000D01*
X157313000Y-105873000D01*
X157333000Y-105873000D01*
X157333000Y-104679845D01*
X157587000Y-104679845D01*
X157587000Y-105873000D01*
X157607000Y-105873000D01*
X157607000Y-106127000D01*
X157587000Y-106127000D01*
X157587000Y-107320155D01*
X157816890Y-107441476D01*
X157964099Y-107396825D01*
X158226920Y-107271641D01*
X158460269Y-107097588D01*
X158655178Y-106881355D01*
X158771176Y-106686620D01*
X158771176Y-106850000D01*
X158778455Y-106923905D01*
X158800012Y-106994970D01*
X158835019Y-107060463D01*
X158882131Y-107117869D01*
X158939537Y-107164981D01*
X159005030Y-107199988D01*
X159076095Y-107221545D01*
X159150000Y-107228824D01*
X160850000Y-107228824D01*
X160923905Y-107221545D01*
X160994970Y-107199988D01*
X161060463Y-107164981D01*
X161117869Y-107117869D01*
X161164981Y-107060463D01*
X161199988Y-106994970D01*
X161221545Y-106923905D01*
X161228824Y-106850000D01*
X161228824Y-106580200D01*
X163971509Y-106580200D01*
X164000000Y-106583006D01*
X164028491Y-106580200D01*
X164028501Y-106580200D01*
X164113739Y-106571805D01*
X164223107Y-106538628D01*
X164323901Y-106484753D01*
X164412248Y-106412248D01*
X164430418Y-106390108D01*
X165180109Y-105640417D01*
X165202248Y-105622248D01*
X165235316Y-105581955D01*
X165274753Y-105533902D01*
X165328628Y-105433107D01*
X165348151Y-105368748D01*
X165361805Y-105323739D01*
X165370200Y-105238501D01*
X165370200Y-105238491D01*
X165373006Y-105210000D01*
X165370200Y-105181509D01*
X165370200Y-99818977D01*
X165482575Y-99758912D01*
X165671481Y-99603881D01*
X165826512Y-99414974D01*
X165941710Y-99199453D01*
X166012649Y-98965599D01*
X166030600Y-98783339D01*
X166030600Y-98356660D01*
X166012649Y-98174400D01*
X165941710Y-97940546D01*
X165826512Y-97725025D01*
X165671481Y-97536119D01*
X165482574Y-97381088D01*
X165267053Y-97265890D01*
X165033199Y-97194951D01*
X164790000Y-97170998D01*
X164546800Y-97194951D01*
X164312946Y-97265890D01*
X164097425Y-97381088D01*
X163908519Y-97536119D01*
X163753488Y-97725026D01*
X163638290Y-97940547D01*
X163567351Y-98174401D01*
X163549400Y-98356661D01*
X163549400Y-98783340D01*
X163567351Y-98965600D01*
X163638290Y-99199454D01*
X163753489Y-99414975D01*
X163908520Y-99603881D01*
X164097426Y-99758912D01*
X164209801Y-99818977D01*
X164209800Y-102761499D01*
X164209800Y-103238500D01*
X164209801Y-103238508D01*
X164209800Y-104969674D01*
X163759674Y-105419800D01*
X161228824Y-105419800D01*
X161228824Y-105150000D01*
X161221545Y-105076095D01*
X161199988Y-105005030D01*
X161164981Y-104939537D01*
X161117869Y-104882131D01*
X161060463Y-104835019D01*
X160994970Y-104800012D01*
X160923905Y-104778455D01*
X160850000Y-104771176D01*
X159150000Y-104771176D01*
X159076095Y-104778455D01*
X159005030Y-104800012D01*
X158939537Y-104835019D01*
X158882131Y-104882131D01*
X158835019Y-104939537D01*
X158800012Y-105005030D01*
X158778455Y-105076095D01*
X158771176Y-105150000D01*
X158771176Y-105313380D01*
X158655178Y-105118645D01*
X158460269Y-104902412D01*
X158226920Y-104728359D01*
X157964099Y-104603175D01*
X157816890Y-104558524D01*
X157587000Y-104679845D01*
X157333000Y-104679845D01*
X157103110Y-104558524D01*
X156955901Y-104603175D01*
X156693080Y-104728359D01*
X156459731Y-104902412D01*
X156264822Y-105118645D01*
X156115843Y-105368748D01*
X156056231Y-105536798D01*
X156007353Y-105418798D01*
X155873073Y-105217833D01*
X155702167Y-105046927D01*
X155501202Y-104912647D01*
X155277903Y-104820153D01*
X155040849Y-104773000D01*
X154799151Y-104773000D01*
X154562097Y-104820153D01*
X154338798Y-104912647D01*
X154137833Y-105046927D01*
X153966927Y-105217833D01*
X153832647Y-105418798D01*
X153832232Y-105419800D01*
X147580200Y-105419800D01*
X147580200Y-98356661D01*
X150849400Y-98356661D01*
X150849400Y-98783340D01*
X150867351Y-98965600D01*
X150938290Y-99199454D01*
X151053489Y-99414975D01*
X151208520Y-99603881D01*
X151397426Y-99758912D01*
X151612947Y-99874110D01*
X151846801Y-99945049D01*
X152090000Y-99969002D01*
X152333200Y-99945049D01*
X152567054Y-99874110D01*
X152782575Y-99758912D01*
X152971481Y-99603881D01*
X153126512Y-99414974D01*
X153241710Y-99199453D01*
X153312649Y-98965599D01*
X153330600Y-98783339D01*
X153330600Y-98356661D01*
X153389400Y-98356661D01*
X153389400Y-98783340D01*
X153407351Y-98965600D01*
X153478290Y-99199454D01*
X153593489Y-99414975D01*
X153748520Y-99603881D01*
X153937426Y-99758912D01*
X154152947Y-99874110D01*
X154386801Y-99945049D01*
X154630000Y-99969002D01*
X154873200Y-99945049D01*
X155107054Y-99874110D01*
X155322575Y-99758912D01*
X155511481Y-99603881D01*
X155666512Y-99414974D01*
X155781710Y-99199453D01*
X155852649Y-98965599D01*
X155870600Y-98783339D01*
X155870600Y-98356661D01*
X155929400Y-98356661D01*
X155929400Y-98783340D01*
X155947351Y-98965600D01*
X156018290Y-99199454D01*
X156133489Y-99414975D01*
X156288520Y-99603881D01*
X156477426Y-99758912D01*
X156692947Y-99874110D01*
X156926801Y-99945049D01*
X157170000Y-99969002D01*
X157413200Y-99945049D01*
X157647054Y-99874110D01*
X157862575Y-99758912D01*
X158051481Y-99603881D01*
X158206512Y-99414974D01*
X158302485Y-99235420D01*
X158418046Y-99484321D01*
X158591514Y-99721729D01*
X158807965Y-99920733D01*
X159059081Y-100073686D01*
X159335211Y-100174709D01*
X159350974Y-100177358D01*
X159583000Y-100056217D01*
X159583000Y-98697000D01*
X159563000Y-98697000D01*
X159563000Y-98443000D01*
X159583000Y-98443000D01*
X159583000Y-97083783D01*
X159837000Y-97083783D01*
X159837000Y-98443000D01*
X159857000Y-98443000D01*
X159857000Y-98697000D01*
X159837000Y-98697000D01*
X159837000Y-100056217D01*
X160069026Y-100177358D01*
X160084789Y-100174709D01*
X160360919Y-100073686D01*
X160612035Y-99920733D01*
X160828486Y-99721729D01*
X161001954Y-99484321D01*
X161117515Y-99235420D01*
X161213489Y-99414975D01*
X161368520Y-99603881D01*
X161557426Y-99758912D01*
X161772947Y-99874110D01*
X162006801Y-99945049D01*
X162250000Y-99969002D01*
X162493200Y-99945049D01*
X162727054Y-99874110D01*
X162942575Y-99758912D01*
X163131481Y-99603881D01*
X163286512Y-99414974D01*
X163401710Y-99199453D01*
X163472649Y-98965599D01*
X163490600Y-98783339D01*
X163490600Y-98356660D01*
X163472649Y-98174400D01*
X163401710Y-97940546D01*
X163286512Y-97725025D01*
X163131481Y-97536119D01*
X162942574Y-97381088D01*
X162830200Y-97321023D01*
X162830200Y-94990326D01*
X164320326Y-93500200D01*
X186971509Y-93500200D01*
X187000000Y-93503006D01*
X187028491Y-93500200D01*
X187028501Y-93500200D01*
X187113739Y-93491805D01*
X187223107Y-93458628D01*
X187323901Y-93404753D01*
X187412248Y-93332248D01*
X187430418Y-93310108D01*
X188095752Y-92644774D01*
X188267818Y-92679000D01*
X188492182Y-92679000D01*
X188712234Y-92635229D01*
X188919519Y-92549369D01*
X189106070Y-92424719D01*
X189264719Y-92266070D01*
X189389369Y-92079519D01*
X189475229Y-91872234D01*
X189519000Y-91652182D01*
X189519000Y-91427818D01*
X189475229Y-91207766D01*
X189389369Y-91000481D01*
X189358979Y-90954999D01*
X189516710Y-90954999D01*
X189545201Y-90957805D01*
X189573692Y-90954999D01*
X189573702Y-90954999D01*
X189658940Y-90946604D01*
X189768308Y-90913427D01*
X189869102Y-90859552D01*
X189957449Y-90787047D01*
X189975619Y-90764907D01*
X190635752Y-90104774D01*
X190705353Y-90118619D01*
X190529892Y-90294080D01*
X190507752Y-90312250D01*
X190435247Y-90400598D01*
X190381372Y-90501392D01*
X190370474Y-90537318D01*
X190193930Y-90655281D01*
X190035281Y-90813930D01*
X189910631Y-91000481D01*
X189824771Y-91207766D01*
X189781000Y-91427818D01*
X189781000Y-91652182D01*
X189824771Y-91872234D01*
X189910631Y-92079519D01*
X190035281Y-92266070D01*
X190193930Y-92424719D01*
X190380481Y-92549369D01*
X190587766Y-92635229D01*
X190807818Y-92679000D01*
X191032182Y-92679000D01*
X191252234Y-92635229D01*
X191459519Y-92549369D01*
X191505002Y-92518978D01*
X191505002Y-92674472D01*
X189759674Y-94419800D01*
X181028490Y-94419800D01*
X180999999Y-94416994D01*
X180971508Y-94419800D01*
X180971499Y-94419800D01*
X180886261Y-94428195D01*
X180776893Y-94461372D01*
X180676099Y-94515247D01*
X180676097Y-94515248D01*
X180676098Y-94515248D01*
X180609889Y-94569584D01*
X180609886Y-94569587D01*
X180587752Y-94587752D01*
X180569587Y-94609886D01*
X179639892Y-95539582D01*
X179617752Y-95557752D01*
X179545247Y-95646100D01*
X179491372Y-95746894D01*
X179458195Y-95856262D01*
X179449800Y-95941500D01*
X179449800Y-95941509D01*
X179446994Y-95970000D01*
X179449800Y-95998491D01*
X179449801Y-97321022D01*
X179337425Y-97381088D01*
X179148519Y-97536119D01*
X178993488Y-97725026D01*
X178878290Y-97940547D01*
X178807351Y-98174401D01*
X178789400Y-98356661D01*
X178789400Y-98783340D01*
X178807351Y-98965600D01*
X178878290Y-99199454D01*
X178993489Y-99414975D01*
X179148520Y-99603881D01*
X179337426Y-99758912D01*
X179552947Y-99874110D01*
X179786801Y-99945049D01*
X180030000Y-99969002D01*
X180273200Y-99945049D01*
X180507054Y-99874110D01*
X180722575Y-99758912D01*
X180911481Y-99603881D01*
X181066512Y-99414974D01*
X181181710Y-99199453D01*
X181252649Y-98965599D01*
X181270600Y-98783339D01*
X181270600Y-98356660D01*
X181252649Y-98174400D01*
X181181710Y-97940546D01*
X181066512Y-97725025D01*
X180911481Y-97536119D01*
X180722574Y-97381088D01*
X180610200Y-97321023D01*
X180610200Y-96210326D01*
X181240327Y-95580200D01*
X189971509Y-95580200D01*
X190000000Y-95583006D01*
X190028491Y-95580200D01*
X190028501Y-95580200D01*
X190113739Y-95571805D01*
X190223107Y-95538628D01*
X190323901Y-95484753D01*
X190412248Y-95412248D01*
X190430418Y-95390108D01*
X192475309Y-93345217D01*
X192497449Y-93327047D01*
X192552599Y-93259847D01*
X192569954Y-93238701D01*
X192623829Y-93137906D01*
X192657006Y-93028539D01*
X192668208Y-92914799D01*
X192665401Y-92886298D01*
X192665401Y-92356190D01*
X192733930Y-92424719D01*
X192920481Y-92549369D01*
X193127766Y-92635229D01*
X193347818Y-92679000D01*
X193572182Y-92679000D01*
X193792234Y-92635229D01*
X193999519Y-92549369D01*
X194186070Y-92424719D01*
X194344719Y-92266070D01*
X194469369Y-92079519D01*
X194555229Y-91872234D01*
X194599000Y-91652182D01*
X194599000Y-91427818D01*
X194564774Y-91255752D01*
X195015315Y-90805212D01*
X195037449Y-90787047D01*
X195055614Y-90764913D01*
X195055617Y-90764910D01*
X195109953Y-90698701D01*
X195111398Y-90695998D01*
X195163829Y-90597906D01*
X195197006Y-90488538D01*
X195205401Y-90403300D01*
X195205401Y-90403291D01*
X195206028Y-90396923D01*
X195238000Y-90400072D01*
X195714250Y-90397000D01*
X195873000Y-90238250D01*
X195873000Y-89127000D01*
X196127000Y-89127000D01*
X196127000Y-90238250D01*
X196285750Y-90397000D01*
X196762000Y-90400072D01*
X196886482Y-90387812D01*
X197006180Y-90351502D01*
X197116494Y-90292537D01*
X197213185Y-90213185D01*
X197292537Y-90116494D01*
X197351502Y-90006180D01*
X197387812Y-89886482D01*
X197400072Y-89762000D01*
X197397000Y-89285750D01*
X197238250Y-89127000D01*
X196127000Y-89127000D01*
X195873000Y-89127000D01*
X195853000Y-89127000D01*
X195853000Y-88873000D01*
X195873000Y-88873000D01*
X195873000Y-87761750D01*
X196127000Y-87761750D01*
X196127000Y-88873000D01*
X197238250Y-88873000D01*
X197397000Y-88714250D01*
X197400072Y-88238000D01*
X197387812Y-88113518D01*
X197351502Y-87993820D01*
X197292537Y-87883506D01*
X197213185Y-87786815D01*
X197116494Y-87707463D01*
X197006180Y-87648498D01*
X196886482Y-87612188D01*
X196762000Y-87599928D01*
X196285750Y-87603000D01*
X196127000Y-87761750D01*
X195873000Y-87761750D01*
X195714250Y-87603000D01*
X195238000Y-87599928D01*
X195205401Y-87603139D01*
X195205401Y-86403289D01*
X195208207Y-86374798D01*
X195205401Y-86346307D01*
X195205401Y-86346298D01*
X195197006Y-86261060D01*
X195163829Y-86151692D01*
X195109954Y-86050898D01*
X195063825Y-85994690D01*
X195055617Y-85984688D01*
X195055614Y-85984685D01*
X195037449Y-85962551D01*
X195015316Y-85944387D01*
X193680818Y-84609890D01*
X193662650Y-84587752D01*
X193574303Y-84515247D01*
X193473509Y-84461372D01*
X193364141Y-84428195D01*
X193278903Y-84419800D01*
X193278893Y-84419800D01*
X193250402Y-84416994D01*
X193221911Y-84419800D01*
X181240326Y-84419800D01*
X181034503Y-84213977D01*
X181066512Y-84174974D01*
X181181710Y-83959453D01*
X181252649Y-83725599D01*
X181270600Y-83543339D01*
X181270600Y-83116660D01*
X181252649Y-82934400D01*
X181181710Y-82700546D01*
X181066512Y-82485025D01*
X180911481Y-82296119D01*
X180722574Y-82141088D01*
X180507053Y-82025890D01*
X180273199Y-81954951D01*
X180030000Y-81930998D01*
X179786800Y-81954951D01*
X179552946Y-82025890D01*
X179337425Y-82141088D01*
X179148519Y-82296119D01*
X178993488Y-82485026D01*
X178878290Y-82700547D01*
X178807351Y-82934401D01*
X178789400Y-83116661D01*
X178789400Y-83543340D01*
X178807351Y-83725600D01*
X178878290Y-83959454D01*
X178993489Y-84174975D01*
X179148520Y-84363881D01*
X179337426Y-84518912D01*
X179552947Y-84634110D01*
X179786801Y-84705049D01*
X179895199Y-84715725D01*
X180569582Y-85390108D01*
X180587752Y-85412248D01*
X180609890Y-85430416D01*
X180676098Y-85484753D01*
X180776893Y-85538628D01*
X180886260Y-85571805D01*
X181000000Y-85583007D01*
X181028501Y-85580200D01*
X193010076Y-85580200D01*
X194045001Y-86615126D01*
X194045001Y-88021022D01*
X193999519Y-87990631D01*
X193792234Y-87904771D01*
X193572182Y-87861000D01*
X193347818Y-87861000D01*
X193127766Y-87904771D01*
X192920481Y-87990631D01*
X192733930Y-88115281D01*
X192665401Y-88183810D01*
X192665401Y-88113692D01*
X192668207Y-88085201D01*
X192665401Y-88056710D01*
X192665401Y-88056700D01*
X192657006Y-87971462D01*
X192630324Y-87883506D01*
X192623829Y-87862093D01*
X192583592Y-87786815D01*
X192569954Y-87761300D01*
X192516445Y-87696099D01*
X192515617Y-87695090D01*
X192515614Y-87695087D01*
X192497449Y-87672953D01*
X192475316Y-87654789D01*
X191430415Y-86609889D01*
X191412248Y-86587752D01*
X191323901Y-86515247D01*
X191223107Y-86461372D01*
X191113739Y-86428195D01*
X191028501Y-86419800D01*
X191028491Y-86419800D01*
X191000000Y-86416994D01*
X190971509Y-86419800D01*
X178240327Y-86419800D01*
X178070200Y-86249674D01*
X178070200Y-84578977D01*
X178182575Y-84518912D01*
X178371481Y-84363881D01*
X178526512Y-84174974D01*
X178641710Y-83959453D01*
X178712649Y-83725599D01*
X178730600Y-83543339D01*
X178730600Y-83116660D01*
X178712649Y-82934400D01*
X178641710Y-82700546D01*
X178526512Y-82485025D01*
X178371481Y-82296119D01*
X178182574Y-82141088D01*
X177967053Y-82025890D01*
X177733199Y-81954951D01*
X177490000Y-81930998D01*
X177246800Y-81954951D01*
X177012946Y-82025890D01*
X176797425Y-82141088D01*
X176608519Y-82296119D01*
X176453488Y-82485026D01*
X176338290Y-82700547D01*
X176267351Y-82934401D01*
X176249400Y-83116661D01*
X176249400Y-83543340D01*
X176267351Y-83725600D01*
X176338290Y-83959454D01*
X176453489Y-84174975D01*
X176608520Y-84363881D01*
X176797426Y-84518912D01*
X176909800Y-84578977D01*
X176909801Y-86461499D01*
X176906994Y-86490000D01*
X176918196Y-86603739D01*
X176951373Y-86713107D01*
X177005248Y-86813901D01*
X177059584Y-86880110D01*
X177059588Y-86880114D01*
X177077753Y-86902248D01*
X177099887Y-86920413D01*
X177569587Y-87390113D01*
X177587752Y-87412248D01*
X177609886Y-87430413D01*
X177609889Y-87430416D01*
X177631554Y-87448196D01*
X177676099Y-87484753D01*
X177776893Y-87538628D01*
X177886261Y-87571805D01*
X177971499Y-87580200D01*
X177971509Y-87580200D01*
X178000000Y-87583006D01*
X178028491Y-87580200D01*
X190759674Y-87580200D01*
X191042532Y-87863059D01*
X191032182Y-87861000D01*
X190807818Y-87861000D01*
X190587766Y-87904771D01*
X190380481Y-87990631D01*
X190193930Y-88115281D01*
X190035281Y-88273930D01*
X189910631Y-88460481D01*
X189824771Y-88667766D01*
X189781000Y-88887818D01*
X189781000Y-89112182D01*
X189815226Y-89284248D01*
X189304875Y-89794599D01*
X189196190Y-89794599D01*
X189264719Y-89726070D01*
X189389369Y-89539519D01*
X189475229Y-89332234D01*
X189519000Y-89112182D01*
X189519000Y-88887818D01*
X189475229Y-88667766D01*
X189389369Y-88460481D01*
X189264719Y-88273930D01*
X189106070Y-88115281D01*
X188919519Y-87990631D01*
X188712234Y-87904771D01*
X188492182Y-87861000D01*
X188267818Y-87861000D01*
X188047766Y-87904771D01*
X187840481Y-87990631D01*
X187653930Y-88115281D01*
X187495281Y-88273930D01*
X187397813Y-88419800D01*
X176240327Y-88419800D01*
X175530200Y-87709674D01*
X175530200Y-84578977D01*
X175642575Y-84518912D01*
X175831481Y-84363881D01*
X175986512Y-84174974D01*
X176101710Y-83959453D01*
X176172649Y-83725599D01*
X176190600Y-83543339D01*
X176190600Y-83116660D01*
X176172649Y-82934400D01*
X176101710Y-82700546D01*
X175986512Y-82485025D01*
X175831481Y-82296119D01*
X175642574Y-82141088D01*
X175427053Y-82025890D01*
X175193199Y-81954951D01*
X174950000Y-81930998D01*
X174706800Y-81954951D01*
X174472946Y-82025890D01*
X174257425Y-82141088D01*
X174068519Y-82296119D01*
X173913488Y-82485026D01*
X173798290Y-82700547D01*
X173727351Y-82934401D01*
X173709400Y-83116661D01*
X173709400Y-83543340D01*
X173727351Y-83725600D01*
X173798290Y-83959454D01*
X173913489Y-84174975D01*
X174068520Y-84363881D01*
X174257426Y-84518912D01*
X174369800Y-84578977D01*
X174369801Y-87921499D01*
X174366994Y-87950000D01*
X174378196Y-88063739D01*
X174411373Y-88173107D01*
X174465248Y-88273901D01*
X174519584Y-88340110D01*
X174519588Y-88340114D01*
X174537753Y-88362248D01*
X174559887Y-88380413D01*
X175569587Y-89390114D01*
X175587752Y-89412248D01*
X175609886Y-89430413D01*
X175609889Y-89430416D01*
X175619741Y-89438501D01*
X175676099Y-89484753D01*
X175776893Y-89538628D01*
X175886261Y-89571805D01*
X175971499Y-89580200D01*
X175971508Y-89580200D01*
X175999999Y-89583006D01*
X176028490Y-89580200D01*
X187397813Y-89580200D01*
X187495281Y-89726070D01*
X187563810Y-89794599D01*
X186653692Y-89794599D01*
X186625201Y-89791793D01*
X186596710Y-89794599D01*
X186596700Y-89794599D01*
X186511462Y-89802994D01*
X186402094Y-89836171D01*
X186301300Y-89890046D01*
X186212953Y-89962551D01*
X186194785Y-89984689D01*
X185759674Y-90419800D01*
X174240326Y-90419800D01*
X172990200Y-89169674D01*
X172990200Y-84578977D01*
X173102575Y-84518912D01*
X173291481Y-84363881D01*
X173446512Y-84174974D01*
X173561710Y-83959453D01*
X173632649Y-83725599D01*
X173650600Y-83543339D01*
X173650600Y-83116660D01*
X173632649Y-82934400D01*
X173561710Y-82700546D01*
X173446512Y-82485025D01*
X173291481Y-82296119D01*
X173102574Y-82141088D01*
X172887053Y-82025890D01*
X172653199Y-81954951D01*
X172410000Y-81930998D01*
X172166800Y-81954951D01*
X171932946Y-82025890D01*
X171717425Y-82141088D01*
X171528519Y-82296119D01*
X171373488Y-82485026D01*
X171258290Y-82700547D01*
X171187351Y-82934401D01*
X171169400Y-83116661D01*
X171169400Y-83543340D01*
X171187351Y-83725600D01*
X171258290Y-83959454D01*
X171373489Y-84174975D01*
X171528520Y-84363881D01*
X171717426Y-84518912D01*
X171829800Y-84578977D01*
X171829801Y-89381499D01*
X171826994Y-89410000D01*
X171838196Y-89523739D01*
X171871373Y-89633107D01*
X171925248Y-89733901D01*
X171979584Y-89800110D01*
X171979588Y-89800114D01*
X171997753Y-89822248D01*
X172019887Y-89840413D01*
X173569582Y-91390108D01*
X173587752Y-91412248D01*
X173609890Y-91430416D01*
X173676098Y-91484753D01*
X173776893Y-91538628D01*
X173886260Y-91571805D01*
X174000000Y-91583007D01*
X174028501Y-91580200D01*
X185971509Y-91580200D01*
X186000000Y-91583006D01*
X186028491Y-91580200D01*
X186028501Y-91580200D01*
X186113739Y-91571805D01*
X186223107Y-91538628D01*
X186323901Y-91484753D01*
X186412248Y-91412248D01*
X186430418Y-91390108D01*
X186865527Y-90954999D01*
X187401021Y-90954999D01*
X187370631Y-91000481D01*
X187284771Y-91207766D01*
X187241000Y-91427818D01*
X187241000Y-91652182D01*
X187275226Y-91824248D01*
X186759674Y-92339800D01*
X164108491Y-92339800D01*
X164080000Y-92336994D01*
X164051509Y-92339800D01*
X164051499Y-92339800D01*
X163966261Y-92348195D01*
X163856893Y-92381372D01*
X163756099Y-92435247D01*
X163667752Y-92507752D01*
X163649584Y-92529890D01*
X161859892Y-94319582D01*
X161837752Y-94337752D01*
X161765247Y-94426100D01*
X161711372Y-94526894D01*
X161678195Y-94636262D01*
X161669800Y-94721500D01*
X161669800Y-94721509D01*
X161666994Y-94750000D01*
X161669800Y-94778491D01*
X161669801Y-97321022D01*
X161557425Y-97381088D01*
X161368519Y-97536119D01*
X161213488Y-97725026D01*
X161117515Y-97904580D01*
X161001954Y-97655679D01*
X160828486Y-97418271D01*
X160612035Y-97219267D01*
X160360919Y-97066314D01*
X160084789Y-96965291D01*
X160069026Y-96962642D01*
X159837000Y-97083783D01*
X159583000Y-97083783D01*
X159350974Y-96962642D01*
X159335211Y-96965291D01*
X159059081Y-97066314D01*
X158807965Y-97219267D01*
X158591514Y-97418271D01*
X158418046Y-97655679D01*
X158302486Y-97904579D01*
X158206512Y-97725025D01*
X158051481Y-97536119D01*
X157862574Y-97381088D01*
X157647053Y-97265890D01*
X157413199Y-97194951D01*
X157170000Y-97170998D01*
X156926800Y-97194951D01*
X156692946Y-97265890D01*
X156477425Y-97381088D01*
X156288519Y-97536119D01*
X156133488Y-97725026D01*
X156018290Y-97940547D01*
X155947351Y-98174401D01*
X155929400Y-98356661D01*
X155870600Y-98356661D01*
X155870600Y-98356660D01*
X155852649Y-98174400D01*
X155781710Y-97940546D01*
X155666512Y-97725025D01*
X155511481Y-97536119D01*
X155322574Y-97381088D01*
X155107053Y-97265890D01*
X154873199Y-97194951D01*
X154630000Y-97170998D01*
X154386800Y-97194951D01*
X154152946Y-97265890D01*
X153937425Y-97381088D01*
X153748519Y-97536119D01*
X153593488Y-97725026D01*
X153478290Y-97940547D01*
X153407351Y-98174401D01*
X153389400Y-98356661D01*
X153330600Y-98356661D01*
X153330600Y-98356660D01*
X153312649Y-98174400D01*
X153241710Y-97940546D01*
X153126512Y-97725025D01*
X152971481Y-97536119D01*
X152782574Y-97381088D01*
X152567053Y-97265890D01*
X152333199Y-97194951D01*
X152090000Y-97170998D01*
X151846800Y-97194951D01*
X151612946Y-97265890D01*
X151397425Y-97381088D01*
X151208519Y-97536119D01*
X151053488Y-97725026D01*
X150938290Y-97940547D01*
X150867351Y-98174401D01*
X150849400Y-98356661D01*
X147580200Y-98356661D01*
X147580200Y-95707768D01*
X147581202Y-95707353D01*
X147782167Y-95573073D01*
X147953073Y-95402167D01*
X148087353Y-95201202D01*
X148179847Y-94977903D01*
X148227000Y-94740849D01*
X148227000Y-94499151D01*
X148179847Y-94262097D01*
X148087353Y-94038798D01*
X147953073Y-93837833D01*
X147782167Y-93666927D01*
X147581202Y-93532647D01*
X147357903Y-93440153D01*
X147120849Y-93393000D01*
X146879151Y-93393000D01*
X146642097Y-93440153D01*
X146418798Y-93532647D01*
X146217833Y-93666927D01*
X146046927Y-93837833D01*
X145912647Y-94038798D01*
X145820153Y-94262097D01*
X145773000Y-94499151D01*
X145773000Y-94740849D01*
X145820153Y-94977903D01*
X145912647Y-95201202D01*
X146046927Y-95402167D01*
X146217833Y-95573073D01*
X146418798Y-95707353D01*
X146419800Y-95707768D01*
X146419801Y-105971489D01*
X146416993Y-106000000D01*
X146419800Y-106028501D01*
X146419801Y-110971489D01*
X146416993Y-111000000D01*
X146419801Y-111028511D01*
X146419800Y-113971509D01*
X146416994Y-114000000D01*
X146419800Y-114028491D01*
X146419800Y-114028500D01*
X146428195Y-114113738D01*
X146461372Y-114223106D01*
X146515247Y-114323900D01*
X146587752Y-114412248D01*
X146609892Y-114430418D01*
X147569582Y-115390108D01*
X147587752Y-115412248D01*
X147609890Y-115430416D01*
X147676098Y-115484753D01*
X147776893Y-115538628D01*
X147886260Y-115571805D01*
X148000000Y-115583007D01*
X148028501Y-115580200D01*
X167113484Y-115580200D01*
X167025644Y-115627152D01*
X166930354Y-115705354D01*
X166852152Y-115800644D01*
X166794042Y-115909359D01*
X166775708Y-115969800D01*
X145790327Y-115969800D01*
X144580200Y-114759674D01*
X144580200Y-114696912D01*
X144717975Y-114604855D01*
X144874855Y-114447975D01*
X144998114Y-114263503D01*
X145083017Y-114058530D01*
X145126300Y-113840931D01*
X145126300Y-113619069D01*
X145083017Y-113401470D01*
X144998114Y-113196497D01*
X144874855Y-113012025D01*
X144717975Y-112855145D01*
X144533503Y-112731886D01*
X144328530Y-112646983D01*
X144110931Y-112603700D01*
X143889069Y-112603700D01*
X143671470Y-112646983D01*
X143466497Y-112731886D01*
X143282025Y-112855145D01*
X143125145Y-113012025D01*
X143001886Y-113196497D01*
X142916983Y-113401470D01*
X142873700Y-113619069D01*
X142873700Y-113840931D01*
X142916983Y-114058530D01*
X143001886Y-114263503D01*
X143125145Y-114447975D01*
X143282025Y-114604855D01*
X143419801Y-114696913D01*
X143419801Y-114971500D01*
X143416994Y-115000000D01*
X143428196Y-115113739D01*
X143461373Y-115223107D01*
X143515248Y-115323901D01*
X143569584Y-115390110D01*
X143569588Y-115390114D01*
X143587753Y-115412248D01*
X143609887Y-115430413D01*
X145119587Y-116940114D01*
X145137752Y-116962248D01*
X145159886Y-116980413D01*
X145159889Y-116980416D01*
X145208890Y-117020630D01*
X145226099Y-117034753D01*
X145326893Y-117088628D01*
X145436261Y-117121805D01*
X145521499Y-117130200D01*
X145521508Y-117130200D01*
X145549999Y-117133006D01*
X145578490Y-117130200D01*
X166775708Y-117130200D01*
X166794042Y-117190641D01*
X166852152Y-117299356D01*
X166930354Y-117394646D01*
X166961004Y-117419800D01*
X137240326Y-117419800D01*
X136580200Y-116759674D01*
X136580200Y-115956493D01*
X140683112Y-115956493D01*
X140748552Y-116195290D01*
X140995412Y-116311120D01*
X141260126Y-116376564D01*
X141532521Y-116389107D01*
X141802129Y-116348268D01*
X142058589Y-116255615D01*
X142171448Y-116195290D01*
X142236888Y-115956493D01*
X141460000Y-115179605D01*
X140683112Y-115956493D01*
X136580200Y-115956493D01*
X136580200Y-115072521D01*
X140070893Y-115072521D01*
X140111732Y-115342129D01*
X140204385Y-115598589D01*
X140264710Y-115711448D01*
X140503507Y-115776888D01*
X141280395Y-115000000D01*
X141639605Y-115000000D01*
X142416493Y-115776888D01*
X142655290Y-115711448D01*
X142771120Y-115464588D01*
X142836564Y-115199874D01*
X142849107Y-114927479D01*
X142808268Y-114657871D01*
X142715615Y-114401411D01*
X142655290Y-114288552D01*
X142416493Y-114223112D01*
X141639605Y-115000000D01*
X141280395Y-115000000D01*
X140503507Y-114223112D01*
X140264710Y-114288552D01*
X140148880Y-114535412D01*
X140083436Y-114800126D01*
X140070893Y-115072521D01*
X136580200Y-115072521D01*
X136580200Y-114043507D01*
X140683112Y-114043507D01*
X141460000Y-114820395D01*
X142236888Y-114043507D01*
X142171448Y-113804710D01*
X141924588Y-113688880D01*
X141659874Y-113623436D01*
X141387479Y-113610893D01*
X141117871Y-113651732D01*
X140861411Y-113744385D01*
X140748552Y-113804710D01*
X140683112Y-114043507D01*
X136580200Y-114043507D01*
X136580200Y-86488606D01*
X137489000Y-86488606D01*
X137489000Y-86711394D01*
X137532464Y-86929900D01*
X137617721Y-87135729D01*
X137741495Y-87320970D01*
X137899030Y-87478505D01*
X138084271Y-87602279D01*
X138290100Y-87687536D01*
X138508606Y-87731000D01*
X138731394Y-87731000D01*
X138949900Y-87687536D01*
X139155729Y-87602279D01*
X139340970Y-87478505D01*
X139498505Y-87320970D01*
X139622279Y-87135729D01*
X139707536Y-86929900D01*
X139751000Y-86711394D01*
X139751000Y-86488606D01*
X140029000Y-86488606D01*
X140029000Y-86711394D01*
X140072464Y-86929900D01*
X140157721Y-87135729D01*
X140281495Y-87320970D01*
X140439030Y-87478505D01*
X140579800Y-87572564D01*
X140579801Y-111356444D01*
X140565730Y-111360712D01*
X140500237Y-111395719D01*
X140442831Y-111442831D01*
X140395719Y-111500237D01*
X140360712Y-111565730D01*
X140339155Y-111636795D01*
X140331876Y-111710700D01*
X140331876Y-113209300D01*
X140339155Y-113283205D01*
X140360712Y-113354270D01*
X140395719Y-113419763D01*
X140442831Y-113477169D01*
X140500237Y-113524281D01*
X140565730Y-113559288D01*
X140636795Y-113580845D01*
X140710700Y-113588124D01*
X142209300Y-113588124D01*
X142283205Y-113580845D01*
X142354270Y-113559288D01*
X142419763Y-113524281D01*
X142477169Y-113477169D01*
X142524281Y-113419763D01*
X142559288Y-113354270D01*
X142580845Y-113283205D01*
X142588124Y-113209300D01*
X142588124Y-111710700D01*
X142580845Y-111636795D01*
X142559288Y-111565730D01*
X142524281Y-111500237D01*
X142477169Y-111442831D01*
X142419763Y-111395719D01*
X142354270Y-111360712D01*
X142283205Y-111339155D01*
X142209300Y-111331876D01*
X141740200Y-111331876D01*
X141740200Y-91959151D01*
X145773000Y-91959151D01*
X145773000Y-92200849D01*
X145820153Y-92437903D01*
X145912647Y-92661202D01*
X146046927Y-92862167D01*
X146217833Y-93033073D01*
X146418798Y-93167353D01*
X146642097Y-93259847D01*
X146879151Y-93307000D01*
X147120849Y-93307000D01*
X147357903Y-93259847D01*
X147581202Y-93167353D01*
X147782167Y-93033073D01*
X147953073Y-92862167D01*
X148087353Y-92661202D01*
X148087768Y-92660200D01*
X160891509Y-92660200D01*
X160920000Y-92663006D01*
X160948491Y-92660200D01*
X160948501Y-92660200D01*
X161033739Y-92651805D01*
X161143107Y-92618628D01*
X161243901Y-92564753D01*
X161332248Y-92492248D01*
X161350418Y-92470108D01*
X163910115Y-89910412D01*
X163932248Y-89892248D01*
X163950413Y-89870114D01*
X163950416Y-89870111D01*
X164004752Y-89803902D01*
X164004753Y-89803901D01*
X164058628Y-89703107D01*
X164091805Y-89593739D01*
X164100200Y-89508501D01*
X164100200Y-89508492D01*
X164103006Y-89480001D01*
X164100200Y-89451510D01*
X164100200Y-86999982D01*
X164119676Y-86991915D01*
X164327028Y-86853367D01*
X164503367Y-86677028D01*
X164641915Y-86469676D01*
X164737349Y-86239279D01*
X164786000Y-85994690D01*
X164786000Y-85745310D01*
X164737349Y-85500721D01*
X164641915Y-85270324D01*
X164503367Y-85062972D01*
X164327028Y-84886633D01*
X164119676Y-84748085D01*
X163889279Y-84652651D01*
X163644690Y-84604000D01*
X163395310Y-84604000D01*
X163150721Y-84652651D01*
X162920324Y-84748085D01*
X162712972Y-84886633D01*
X162536633Y-85062972D01*
X162398085Y-85270324D01*
X162302651Y-85500721D01*
X162254000Y-85745310D01*
X162254000Y-85994690D01*
X162302651Y-86239279D01*
X162398085Y-86469676D01*
X162536633Y-86677028D01*
X162712972Y-86853367D01*
X162920324Y-86991915D01*
X162939801Y-86999983D01*
X162939800Y-89239673D01*
X160679674Y-91499800D01*
X148087768Y-91499800D01*
X148087353Y-91498798D01*
X147953073Y-91297833D01*
X147782167Y-91126927D01*
X147581202Y-90992647D01*
X147357903Y-90900153D01*
X147120849Y-90853000D01*
X146879151Y-90853000D01*
X146642097Y-90900153D01*
X146418798Y-90992647D01*
X146217833Y-91126927D01*
X146046927Y-91297833D01*
X145912647Y-91498798D01*
X145820153Y-91722097D01*
X145773000Y-91959151D01*
X141740200Y-91959151D01*
X141740200Y-87850000D01*
X145511928Y-87850000D01*
X145524188Y-87974482D01*
X145560498Y-88094180D01*
X145619463Y-88204494D01*
X145698815Y-88301185D01*
X145795506Y-88380537D01*
X145905820Y-88439502D01*
X146025518Y-88475812D01*
X146150000Y-88488072D01*
X146367553Y-88486888D01*
X146217833Y-88586927D01*
X146046927Y-88757833D01*
X145912647Y-88958798D01*
X145820153Y-89182097D01*
X145773000Y-89419151D01*
X145773000Y-89660849D01*
X145820153Y-89897903D01*
X145912647Y-90121202D01*
X146046927Y-90322167D01*
X146217833Y-90493073D01*
X146418798Y-90627353D01*
X146642097Y-90719847D01*
X146879151Y-90767000D01*
X147120849Y-90767000D01*
X147357903Y-90719847D01*
X147581202Y-90627353D01*
X147782167Y-90493073D01*
X147953073Y-90322167D01*
X148087353Y-90121202D01*
X148087768Y-90120200D01*
X159431509Y-90120200D01*
X159460000Y-90123006D01*
X159488491Y-90120200D01*
X159488501Y-90120200D01*
X159573739Y-90111805D01*
X159683107Y-90078628D01*
X159783901Y-90024753D01*
X159872248Y-89952248D01*
X159890418Y-89930108D01*
X161370109Y-88450417D01*
X161392248Y-88432248D01*
X161425316Y-88391955D01*
X161464753Y-88343902D01*
X161518628Y-88243107D01*
X161532026Y-88198940D01*
X161551805Y-88133739D01*
X161560200Y-88048501D01*
X161560200Y-88048491D01*
X161563006Y-88020000D01*
X161560200Y-87991509D01*
X161560200Y-86999982D01*
X161579676Y-86991915D01*
X161787028Y-86853367D01*
X161963367Y-86677028D01*
X162101915Y-86469676D01*
X162197349Y-86239279D01*
X162246000Y-85994690D01*
X162246000Y-85745310D01*
X162197349Y-85500721D01*
X162101915Y-85270324D01*
X161963367Y-85062972D01*
X161787028Y-84886633D01*
X161579676Y-84748085D01*
X161349279Y-84652651D01*
X161104690Y-84604000D01*
X160855310Y-84604000D01*
X160610721Y-84652651D01*
X160380324Y-84748085D01*
X160172972Y-84886633D01*
X159996633Y-85062972D01*
X159858085Y-85270324D01*
X159762651Y-85500721D01*
X159714000Y-85745310D01*
X159714000Y-85994690D01*
X159762651Y-86239279D01*
X159858085Y-86469676D01*
X159996633Y-86677028D01*
X160172972Y-86853367D01*
X160380324Y-86991915D01*
X160399800Y-86999982D01*
X160399800Y-87779674D01*
X159219674Y-88959800D01*
X148087768Y-88959800D01*
X148087353Y-88958798D01*
X147953073Y-88757833D01*
X147782167Y-88586927D01*
X147632447Y-88486888D01*
X147850000Y-88488072D01*
X147974482Y-88475812D01*
X148094180Y-88439502D01*
X148204494Y-88380537D01*
X148301185Y-88301185D01*
X148380537Y-88204494D01*
X148439502Y-88094180D01*
X148475812Y-87974482D01*
X148488072Y-87850000D01*
X148485000Y-87285750D01*
X148326250Y-87127000D01*
X147127000Y-87127000D01*
X147127000Y-87147000D01*
X146873000Y-87147000D01*
X146873000Y-87127000D01*
X145673750Y-87127000D01*
X145515000Y-87285750D01*
X145511928Y-87850000D01*
X141740200Y-87850000D01*
X141740200Y-87572564D01*
X141880970Y-87478505D01*
X142038505Y-87320970D01*
X142162279Y-87135729D01*
X142247536Y-86929900D01*
X142291000Y-86711394D01*
X142291000Y-86488606D01*
X142247536Y-86270100D01*
X142197790Y-86150000D01*
X145511928Y-86150000D01*
X145515000Y-86714250D01*
X145673750Y-86873000D01*
X146873000Y-86873000D01*
X146873000Y-85673750D01*
X147127000Y-85673750D01*
X147127000Y-86873000D01*
X148326250Y-86873000D01*
X148485000Y-86714250D01*
X148488072Y-86150000D01*
X148475812Y-86025518D01*
X148439502Y-85905820D01*
X148380537Y-85795506D01*
X148301185Y-85698815D01*
X148204494Y-85619463D01*
X148094180Y-85560498D01*
X147974482Y-85524188D01*
X147850000Y-85511928D01*
X147285750Y-85515000D01*
X147127000Y-85673750D01*
X146873000Y-85673750D01*
X146714250Y-85515000D01*
X146150000Y-85511928D01*
X146025518Y-85524188D01*
X145905820Y-85560498D01*
X145795506Y-85619463D01*
X145698815Y-85698815D01*
X145619463Y-85795506D01*
X145560498Y-85905820D01*
X145524188Y-86025518D01*
X145511928Y-86150000D01*
X142197790Y-86150000D01*
X142162279Y-86064271D01*
X142038505Y-85879030D01*
X141880970Y-85721495D01*
X141695729Y-85597721D01*
X141489900Y-85512464D01*
X141271394Y-85469000D01*
X141048606Y-85469000D01*
X140830100Y-85512464D01*
X140624271Y-85597721D01*
X140439030Y-85721495D01*
X140281495Y-85879030D01*
X140157721Y-86064271D01*
X140072464Y-86270100D01*
X140029000Y-86488606D01*
X139751000Y-86488606D01*
X139707536Y-86270100D01*
X139622279Y-86064271D01*
X139498505Y-85879030D01*
X139340970Y-85721495D01*
X139200200Y-85627436D01*
X139200200Y-84620326D01*
X139910327Y-83910200D01*
X150923349Y-83910200D01*
X150938290Y-83959454D01*
X151053489Y-84174975D01*
X151208520Y-84363881D01*
X151397426Y-84518912D01*
X151612947Y-84634110D01*
X151846801Y-84705049D01*
X152090000Y-84729002D01*
X152333200Y-84705049D01*
X152567054Y-84634110D01*
X152782575Y-84518912D01*
X152971481Y-84363881D01*
X153126512Y-84174974D01*
X153222485Y-83995420D01*
X153338046Y-84244321D01*
X153511514Y-84481729D01*
X153727965Y-84680733D01*
X153979081Y-84833686D01*
X154255211Y-84934709D01*
X154270974Y-84937358D01*
X154503000Y-84816217D01*
X154503000Y-83457000D01*
X154483000Y-83457000D01*
X154483000Y-83203000D01*
X154503000Y-83203000D01*
X154503000Y-81843783D01*
X154757000Y-81843783D01*
X154757000Y-83203000D01*
X154777000Y-83203000D01*
X154777000Y-83457000D01*
X154757000Y-83457000D01*
X154757000Y-84816217D01*
X154989026Y-84937358D01*
X155004789Y-84934709D01*
X155280919Y-84833686D01*
X155532035Y-84680733D01*
X155748486Y-84481729D01*
X155921954Y-84244321D01*
X156037515Y-83995420D01*
X156133489Y-84174975D01*
X156288520Y-84363881D01*
X156477426Y-84518912D01*
X156692947Y-84634110D01*
X156926801Y-84705049D01*
X157170000Y-84729002D01*
X157413200Y-84705049D01*
X157647054Y-84634110D01*
X157862575Y-84518912D01*
X158051481Y-84363881D01*
X158206512Y-84174974D01*
X158321710Y-83959453D01*
X158392649Y-83725599D01*
X158410600Y-83543339D01*
X158410600Y-83116660D01*
X158392649Y-82934400D01*
X158321710Y-82700546D01*
X158206512Y-82485025D01*
X158051481Y-82296119D01*
X157862574Y-82141088D01*
X157647053Y-82025890D01*
X157413199Y-81954951D01*
X157170000Y-81930998D01*
X156926800Y-81954951D01*
X156692946Y-82025890D01*
X156477425Y-82141088D01*
X156288519Y-82296119D01*
X156133488Y-82485026D01*
X156037515Y-82664580D01*
X155921954Y-82415679D01*
X155748486Y-82178271D01*
X155532035Y-81979267D01*
X155280919Y-81826314D01*
X155004789Y-81725291D01*
X154989026Y-81722642D01*
X154757000Y-81843783D01*
X154503000Y-81843783D01*
X154270974Y-81722642D01*
X154255211Y-81725291D01*
X153979081Y-81826314D01*
X153727965Y-81979267D01*
X153511514Y-82178271D01*
X153338046Y-82415679D01*
X153222486Y-82664579D01*
X153126512Y-82485025D01*
X152971481Y-82296119D01*
X152782574Y-82141088D01*
X152670200Y-82081023D01*
X152670200Y-66118490D01*
X152673006Y-66089999D01*
X152670200Y-66061508D01*
X152670200Y-66061499D01*
X152661805Y-65976261D01*
X152628628Y-65866893D01*
X152574753Y-65766099D01*
X152560630Y-65748890D01*
X152520416Y-65699889D01*
X152520413Y-65699886D01*
X152502248Y-65677752D01*
X152480114Y-65659587D01*
X151230418Y-64409892D01*
X151212248Y-64387752D01*
X151123901Y-64315247D01*
X151023107Y-64261372D01*
X150913739Y-64228195D01*
X150828501Y-64219800D01*
X150828491Y-64219800D01*
X150800000Y-64216994D01*
X150771509Y-64219800D01*
X147812487Y-64219800D01*
X147753210Y-64076694D01*
X147586099Y-63826594D01*
X147373406Y-63613901D01*
X147123306Y-63446790D01*
X146845410Y-63331681D01*
X146550396Y-63273000D01*
X146249604Y-63273000D01*
X145954590Y-63331681D01*
X145676694Y-63446790D01*
X145426594Y-63613901D01*
X145213901Y-63826594D01*
X145046790Y-64076694D01*
X144931681Y-64354590D01*
X144873000Y-64649604D01*
X144873000Y-64950396D01*
X144931681Y-65245410D01*
X145046790Y-65523306D01*
X145213901Y-65773406D01*
X145426594Y-65986099D01*
X145676694Y-66153210D01*
X145954590Y-66268319D01*
X146249604Y-66327000D01*
X146550396Y-66327000D01*
X146845410Y-66268319D01*
X147123306Y-66153210D01*
X147373406Y-65986099D01*
X147586099Y-65773406D01*
X147753210Y-65523306D01*
X147812487Y-65380200D01*
X150559674Y-65380200D01*
X151509801Y-66330328D01*
X151509800Y-82081022D01*
X151397425Y-82141088D01*
X151208519Y-82296119D01*
X151053488Y-82485026D01*
X150938290Y-82700547D01*
X150923349Y-82749800D01*
X139698490Y-82749800D01*
X139669999Y-82746994D01*
X139641508Y-82749800D01*
X139641499Y-82749800D01*
X139556261Y-82758195D01*
X139446893Y-82791372D01*
X139346099Y-82845247D01*
X139346097Y-82845248D01*
X139346098Y-82845248D01*
X139279889Y-82899584D01*
X139279886Y-82899587D01*
X139257752Y-82917752D01*
X139239587Y-82939886D01*
X138229887Y-83949587D01*
X138207753Y-83967752D01*
X138189588Y-83989886D01*
X138189584Y-83989890D01*
X138135248Y-84056099D01*
X138081373Y-84156893D01*
X138048196Y-84266261D01*
X138036994Y-84380000D01*
X138039801Y-84408500D01*
X138039800Y-85627435D01*
X137899030Y-85721495D01*
X137741495Y-85879030D01*
X137617721Y-86064271D01*
X137532464Y-86270100D01*
X137489000Y-86488606D01*
X136580200Y-86488606D01*
X136580200Y-81442349D01*
X145337256Y-81442349D01*
X145451118Y-81722090D01*
X145766296Y-81877961D01*
X146105826Y-81969349D01*
X146456661Y-81992741D01*
X146805319Y-81947240D01*
X147138400Y-81834594D01*
X147348882Y-81722090D01*
X147462744Y-81442349D01*
X146400000Y-80379605D01*
X145337256Y-81442349D01*
X136580200Y-81442349D01*
X136580200Y-80256661D01*
X144607259Y-80256661D01*
X144652760Y-80605319D01*
X144765406Y-80938400D01*
X144877910Y-81148882D01*
X145157651Y-81262744D01*
X146220395Y-80200000D01*
X146579605Y-80200000D01*
X147642349Y-81262744D01*
X147922090Y-81148882D01*
X148077961Y-80833704D01*
X148169349Y-80494174D01*
X148192741Y-80143339D01*
X148147240Y-79794681D01*
X148034594Y-79461600D01*
X147922090Y-79251118D01*
X147642349Y-79137256D01*
X146579605Y-80200000D01*
X146220395Y-80200000D01*
X145157651Y-79137256D01*
X144877910Y-79251118D01*
X144722039Y-79566296D01*
X144630651Y-79905826D01*
X144607259Y-80256661D01*
X136580200Y-80256661D01*
X136580200Y-78957651D01*
X145337256Y-78957651D01*
X146400000Y-80020395D01*
X147462744Y-78957651D01*
X147348882Y-78677910D01*
X147033704Y-78522039D01*
X146694174Y-78430651D01*
X146343339Y-78407259D01*
X145994681Y-78452760D01*
X145661600Y-78565406D01*
X145451118Y-78677910D01*
X145337256Y-78957651D01*
X136580200Y-78957651D01*
X136580200Y-63240326D01*
X137240326Y-62580200D01*
X159419801Y-62580200D01*
X159419800Y-67771176D01*
X159150000Y-67771176D01*
X159076095Y-67778455D01*
X159005030Y-67800012D01*
X158939537Y-67835019D01*
X158882131Y-67882131D01*
X158835019Y-67939537D01*
X158800012Y-68005030D01*
X158778455Y-68076095D01*
X158771176Y-68150000D01*
X158771176Y-69850000D01*
X158778455Y-69923905D01*
X158800012Y-69994970D01*
X158835019Y-70060463D01*
X158882131Y-70117869D01*
X158939537Y-70164981D01*
X159005030Y-70199988D01*
X159076095Y-70221545D01*
X159150000Y-70228824D01*
X159419800Y-70228824D01*
X159419801Y-81969208D01*
X159232946Y-82025890D01*
X159017425Y-82141088D01*
X158828519Y-82296119D01*
X158673488Y-82485026D01*
X158558290Y-82700547D01*
X158487351Y-82934401D01*
X158469400Y-83116661D01*
X158469400Y-83543340D01*
X158487351Y-83725600D01*
X158558290Y-83959454D01*
X158673489Y-84174975D01*
X158828520Y-84363881D01*
X159017426Y-84518912D01*
X159232947Y-84634110D01*
X159466801Y-84705049D01*
X159710000Y-84729002D01*
X159953200Y-84705049D01*
X160187054Y-84634110D01*
X160402575Y-84518912D01*
X160591481Y-84363881D01*
X160746512Y-84174974D01*
X160861710Y-83959453D01*
X160932649Y-83725599D01*
X160950600Y-83543339D01*
X160950600Y-83116661D01*
X161009400Y-83116661D01*
X161009400Y-83543340D01*
X161027351Y-83725600D01*
X161098290Y-83959454D01*
X161213489Y-84174975D01*
X161368520Y-84363881D01*
X161557426Y-84518912D01*
X161772947Y-84634110D01*
X162006801Y-84705049D01*
X162250000Y-84729002D01*
X162493200Y-84705049D01*
X162727054Y-84634110D01*
X162942575Y-84518912D01*
X163131481Y-84363881D01*
X163286512Y-84174974D01*
X163401710Y-83959453D01*
X163472649Y-83725599D01*
X163490600Y-83543339D01*
X163490600Y-83116661D01*
X163549400Y-83116661D01*
X163549400Y-83543340D01*
X163567351Y-83725600D01*
X163638290Y-83959454D01*
X163753489Y-84174975D01*
X163908520Y-84363881D01*
X164097426Y-84518912D01*
X164312947Y-84634110D01*
X164546801Y-84705049D01*
X164790000Y-84729002D01*
X165033200Y-84705049D01*
X165267054Y-84634110D01*
X165482575Y-84518912D01*
X165671481Y-84363881D01*
X165826512Y-84174974D01*
X165941710Y-83959453D01*
X166012649Y-83725599D01*
X166030600Y-83543339D01*
X166030600Y-83116661D01*
X166089400Y-83116661D01*
X166089400Y-83543340D01*
X166107351Y-83725600D01*
X166178290Y-83959454D01*
X166293489Y-84174975D01*
X166448520Y-84363881D01*
X166637426Y-84518912D01*
X166852947Y-84634110D01*
X167086801Y-84705049D01*
X167330000Y-84729002D01*
X167573200Y-84705049D01*
X167807054Y-84634110D01*
X168022575Y-84518912D01*
X168211481Y-84363881D01*
X168366512Y-84174974D01*
X168481710Y-83959453D01*
X168552649Y-83725599D01*
X168570600Y-83543339D01*
X168570600Y-83116661D01*
X168629400Y-83116661D01*
X168629400Y-83543340D01*
X168647351Y-83725600D01*
X168718290Y-83959454D01*
X168833489Y-84174975D01*
X168988520Y-84363881D01*
X169177426Y-84518912D01*
X169392947Y-84634110D01*
X169626801Y-84705049D01*
X169870000Y-84729002D01*
X170113200Y-84705049D01*
X170347054Y-84634110D01*
X170562575Y-84518912D01*
X170751481Y-84363881D01*
X170906512Y-84174974D01*
X171021710Y-83959453D01*
X171092649Y-83725599D01*
X171110600Y-83543339D01*
X171110600Y-83116660D01*
X171092649Y-82934400D01*
X171021710Y-82700546D01*
X170906512Y-82485025D01*
X170751481Y-82296119D01*
X170562574Y-82141088D01*
X170347053Y-82025890D01*
X170113199Y-81954951D01*
X169870000Y-81930998D01*
X169626800Y-81954951D01*
X169392946Y-82025890D01*
X169177425Y-82141088D01*
X168988519Y-82296119D01*
X168833488Y-82485026D01*
X168718290Y-82700547D01*
X168647351Y-82934401D01*
X168629400Y-83116661D01*
X168570600Y-83116661D01*
X168570600Y-83116660D01*
X168552649Y-82934400D01*
X168481710Y-82700546D01*
X168366512Y-82485025D01*
X168211481Y-82296119D01*
X168022574Y-82141088D01*
X167807053Y-82025890D01*
X167573199Y-81954951D01*
X167330000Y-81930998D01*
X167086800Y-81954951D01*
X166852946Y-82025890D01*
X166637425Y-82141088D01*
X166448519Y-82296119D01*
X166293488Y-82485026D01*
X166178290Y-82700547D01*
X166107351Y-82934401D01*
X166089400Y-83116661D01*
X166030600Y-83116661D01*
X166030600Y-83116660D01*
X166012649Y-82934400D01*
X165941710Y-82700546D01*
X165826512Y-82485025D01*
X165671481Y-82296119D01*
X165482574Y-82141088D01*
X165370200Y-82081023D01*
X165370200Y-79450326D01*
X169310114Y-75510413D01*
X169332248Y-75492248D01*
X169350413Y-75470114D01*
X169350416Y-75470111D01*
X169404752Y-75403902D01*
X169404753Y-75403901D01*
X169458628Y-75303107D01*
X169491805Y-75193739D01*
X169500200Y-75108501D01*
X169500200Y-75108492D01*
X169503006Y-75080001D01*
X169500200Y-75051510D01*
X169500200Y-70087768D01*
X169501202Y-70087353D01*
X169702167Y-69953073D01*
X169873073Y-69782167D01*
X170007353Y-69581202D01*
X170056231Y-69463202D01*
X170115843Y-69631252D01*
X170264822Y-69881355D01*
X170459731Y-70097588D01*
X170693080Y-70271641D01*
X170955901Y-70396825D01*
X171103110Y-70441476D01*
X171333000Y-70320155D01*
X171333000Y-69127000D01*
X171313000Y-69127000D01*
X171313000Y-68873000D01*
X171333000Y-68873000D01*
X171333000Y-67679845D01*
X171103110Y-67558524D01*
X170955901Y-67603175D01*
X170693080Y-67728359D01*
X170459731Y-67902412D01*
X170264822Y-68118645D01*
X170115843Y-68368748D01*
X170056231Y-68536798D01*
X170007353Y-68418798D01*
X169873073Y-68217833D01*
X169702167Y-68046927D01*
X169501202Y-67912647D01*
X169277903Y-67820153D01*
X169040849Y-67773000D01*
X168799151Y-67773000D01*
X168562097Y-67820153D01*
X168338798Y-67912647D01*
X168137833Y-68046927D01*
X167966927Y-68217833D01*
X167832647Y-68418798D01*
X167740153Y-68642097D01*
X167693000Y-68879151D01*
X167693000Y-69120849D01*
X167740153Y-69357903D01*
X167832647Y-69581202D01*
X167966927Y-69782167D01*
X168137833Y-69953073D01*
X168338798Y-70087353D01*
X168339800Y-70087768D01*
X168339801Y-74839672D01*
X164399892Y-78779582D01*
X164377752Y-78797752D01*
X164305247Y-78886100D01*
X164251372Y-78986894D01*
X164218195Y-79096262D01*
X164209800Y-79181500D01*
X164209800Y-79181509D01*
X164206994Y-79210000D01*
X164209800Y-79238491D01*
X164209801Y-82081022D01*
X164097425Y-82141088D01*
X163908519Y-82296119D01*
X163753488Y-82485026D01*
X163638290Y-82700547D01*
X163567351Y-82934401D01*
X163549400Y-83116661D01*
X163490600Y-83116661D01*
X163490600Y-83116660D01*
X163472649Y-82934400D01*
X163401710Y-82700546D01*
X163286512Y-82485025D01*
X163131481Y-82296119D01*
X162942574Y-82141088D01*
X162830200Y-82081023D01*
X162830200Y-77990326D01*
X165470115Y-75350412D01*
X165492248Y-75332248D01*
X165510413Y-75310114D01*
X165510416Y-75310111D01*
X165564752Y-75243902D01*
X165564753Y-75243901D01*
X165618628Y-75143107D01*
X165651805Y-75033739D01*
X165660200Y-74948501D01*
X165660200Y-74948492D01*
X165663006Y-74920001D01*
X165660200Y-74891510D01*
X165660200Y-70087768D01*
X165661202Y-70087353D01*
X165862167Y-69953073D01*
X166033073Y-69782167D01*
X166167353Y-69581202D01*
X166259847Y-69357903D01*
X166307000Y-69120849D01*
X166307000Y-68879151D01*
X166259847Y-68642097D01*
X166167353Y-68418798D01*
X166033073Y-68217833D01*
X165862167Y-68046927D01*
X165661202Y-67912647D01*
X165437903Y-67820153D01*
X165200849Y-67773000D01*
X164959151Y-67773000D01*
X164722097Y-67820153D01*
X164498798Y-67912647D01*
X164297833Y-68046927D01*
X164126927Y-68217833D01*
X163992647Y-68418798D01*
X163943769Y-68536798D01*
X163884157Y-68368748D01*
X163735178Y-68118645D01*
X163540269Y-67902412D01*
X163306920Y-67728359D01*
X163044099Y-67603175D01*
X162896890Y-67558524D01*
X162667000Y-67679845D01*
X162667000Y-68873000D01*
X162687000Y-68873000D01*
X162687000Y-69127000D01*
X162667000Y-69127000D01*
X162667000Y-70320155D01*
X162896890Y-70441476D01*
X163044099Y-70396825D01*
X163306920Y-70271641D01*
X163540269Y-70097588D01*
X163735178Y-69881355D01*
X163884157Y-69631252D01*
X163943769Y-69463202D01*
X163992647Y-69581202D01*
X164126927Y-69782167D01*
X164297833Y-69953073D01*
X164498798Y-70087353D01*
X164499801Y-70087768D01*
X164499800Y-74679673D01*
X161859887Y-77319587D01*
X161837753Y-77337752D01*
X161819588Y-77359886D01*
X161819584Y-77359890D01*
X161765248Y-77426099D01*
X161711373Y-77526893D01*
X161678196Y-77636261D01*
X161666994Y-77750000D01*
X161669801Y-77778501D01*
X161669800Y-82081022D01*
X161557425Y-82141088D01*
X161368519Y-82296119D01*
X161213488Y-82485026D01*
X161098290Y-82700547D01*
X161027351Y-82934401D01*
X161009400Y-83116661D01*
X160950600Y-83116661D01*
X160950600Y-83116660D01*
X160932649Y-82934400D01*
X160861710Y-82700546D01*
X160746512Y-82485025D01*
X160591481Y-82296119D01*
X160580200Y-82286861D01*
X160580200Y-70228824D01*
X160850000Y-70228824D01*
X160923905Y-70221545D01*
X160994970Y-70199988D01*
X161060463Y-70164981D01*
X161117869Y-70117869D01*
X161164981Y-70060463D01*
X161199988Y-69994970D01*
X161221545Y-69923905D01*
X161228824Y-69850000D01*
X161228824Y-69686620D01*
X161344822Y-69881355D01*
X161539731Y-70097588D01*
X161773080Y-70271641D01*
X162035901Y-70396825D01*
X162183110Y-70441476D01*
X162413000Y-70320155D01*
X162413000Y-69127000D01*
X162393000Y-69127000D01*
X162393000Y-68873000D01*
X162413000Y-68873000D01*
X162413000Y-67679845D01*
X162183110Y-67558524D01*
X162035901Y-67603175D01*
X161773080Y-67728359D01*
X161539731Y-67902412D01*
X161344822Y-68118645D01*
X161228824Y-68313380D01*
X161228824Y-68150000D01*
X161221545Y-68076095D01*
X161199988Y-68005030D01*
X161164981Y-67939537D01*
X161117869Y-67882131D01*
X161060463Y-67835019D01*
X160994970Y-67800012D01*
X160923905Y-67778455D01*
X160850000Y-67771176D01*
X160580200Y-67771176D01*
X160580200Y-62580200D01*
X173419801Y-62580200D01*
X173419800Y-67771176D01*
X173150000Y-67771176D01*
X173076095Y-67778455D01*
X173005030Y-67800012D01*
X172939537Y-67835019D01*
X172882131Y-67882131D01*
X172835019Y-67939537D01*
X172800012Y-68005030D01*
X172778455Y-68076095D01*
X172771176Y-68150000D01*
X172771176Y-68313380D01*
X172655178Y-68118645D01*
X172460269Y-67902412D01*
X172226920Y-67728359D01*
X171964099Y-67603175D01*
X171816890Y-67558524D01*
X171587000Y-67679845D01*
X171587000Y-68873000D01*
X171607000Y-68873000D01*
X171607000Y-69127000D01*
X171587000Y-69127000D01*
X171587000Y-70320155D01*
X171816890Y-70441476D01*
X171964099Y-70396825D01*
X172226920Y-70271641D01*
X172460269Y-70097588D01*
X172655178Y-69881355D01*
X172771176Y-69686620D01*
X172771176Y-69850000D01*
X172778455Y-69923905D01*
X172800012Y-69994970D01*
X172835019Y-70060463D01*
X172882131Y-70117869D01*
X172939537Y-70164981D01*
X173005030Y-70199988D01*
X173076095Y-70221545D01*
X173150000Y-70228824D01*
X174850000Y-70228824D01*
X174923905Y-70221545D01*
X174994970Y-70199988D01*
X175060463Y-70164981D01*
X175117869Y-70117869D01*
X175164981Y-70060463D01*
X175199988Y-69994970D01*
X175221545Y-69923905D01*
X175228824Y-69850000D01*
X175228824Y-68150000D01*
X175221545Y-68076095D01*
X175199988Y-68005030D01*
X175164981Y-67939537D01*
X175117869Y-67882131D01*
X175060463Y-67835019D01*
X174994970Y-67800012D01*
X174923905Y-67778455D01*
X174850000Y-67771176D01*
X174580200Y-67771176D01*
X174580200Y-65000000D01*
X181495572Y-65000000D01*
X181498000Y-65024653D01*
X181498001Y-70975337D01*
X181495572Y-71000000D01*
X181505264Y-71098409D01*
X181533969Y-71193036D01*
X181580583Y-71280245D01*
X181643316Y-71356684D01*
X181719755Y-71419417D01*
X181806964Y-71466031D01*
X181901591Y-71494736D01*
X181975347Y-71502000D01*
X182000000Y-71504428D01*
X182024653Y-71502000D01*
X191975347Y-71502000D01*
X192000000Y-71504428D01*
X192024653Y-71502000D01*
X192098409Y-71494736D01*
X192193036Y-71466031D01*
X192280245Y-71419417D01*
X192356684Y-71356684D01*
X192419417Y-71280245D01*
X192466031Y-71193036D01*
X192494736Y-71098409D01*
X192504428Y-71000000D01*
X192502000Y-70975347D01*
X192502000Y-65024653D01*
X192504428Y-65000000D01*
X192494736Y-64901591D01*
X192466031Y-64806964D01*
X192419417Y-64719755D01*
X192356684Y-64643316D01*
X192280245Y-64580583D01*
X192193036Y-64533969D01*
X192098409Y-64505264D01*
X192024653Y-64498000D01*
X192000000Y-64495572D01*
X191975347Y-64498000D01*
X182024653Y-64498000D01*
X182000000Y-64495572D01*
X181975347Y-64498000D01*
X181901591Y-64505264D01*
X181806964Y-64533969D01*
X181719755Y-64580583D01*
X181643316Y-64643316D01*
X181580583Y-64719755D01*
X181533969Y-64806964D01*
X181505264Y-64901591D01*
X181495572Y-65000000D01*
X174580200Y-65000000D01*
X174580200Y-62580200D01*
X196759674Y-62580200D01*
X197419800Y-63240326D01*
X197419801Y-90759672D01*
X197219674Y-90959800D01*
X196982187Y-90959800D01*
X196884719Y-90813930D01*
X196726070Y-90655281D01*
X196539519Y-90530631D01*
X196332234Y-90444771D01*
X196112182Y-90401000D01*
X195887818Y-90401000D01*
X195667766Y-90444771D01*
X195460481Y-90530631D01*
X195273930Y-90655281D01*
X195115281Y-90813930D01*
X194990631Y-91000481D01*
X194904771Y-91207766D01*
X194861000Y-91427818D01*
X194861000Y-91652182D01*
X194904771Y-91872234D01*
X194990631Y-92079519D01*
X195115281Y-92266070D01*
X195273930Y-92424719D01*
X195460481Y-92549369D01*
X195667766Y-92635229D01*
X195887818Y-92679000D01*
X196112182Y-92679000D01*
X196332234Y-92635229D01*
X196539519Y-92549369D01*
X196726070Y-92424719D01*
X196884719Y-92266070D01*
X196982187Y-92120200D01*
X197431509Y-92120200D01*
X197460000Y-92123006D01*
X197488491Y-92120200D01*
X197488501Y-92120200D01*
X197573739Y-92111805D01*
X197683107Y-92078628D01*
X197783901Y-92024753D01*
X197872248Y-91952248D01*
X197890417Y-91930109D01*
X198390113Y-91430413D01*
X198412248Y-91412248D01*
X198430413Y-91390114D01*
X198430416Y-91390111D01*
X198484752Y-91323902D01*
X198484753Y-91323901D01*
X198538628Y-91223107D01*
X198571805Y-91113739D01*
X198580200Y-91028501D01*
X198580200Y-91028492D01*
X198583006Y-91000001D01*
X198580200Y-90971510D01*
X198580200Y-63028501D01*
X198583007Y-63000000D01*
X198571805Y-62886260D01*
X198538628Y-62776893D01*
X198484753Y-62676098D01*
X198430416Y-62609890D01*
X198412248Y-62587752D01*
X198390109Y-62569583D01*
X197430418Y-61609892D01*
X197412248Y-61587752D01*
X197323901Y-61515247D01*
X197223107Y-61461372D01*
X197113739Y-61428195D01*
X197028501Y-61419800D01*
X197028491Y-61419800D01*
X197000000Y-61416994D01*
X196971509Y-61419800D01*
X174028501Y-61419800D01*
X174000000Y-61416993D01*
X173971500Y-61419800D01*
X160028501Y-61419800D01*
X160000000Y-61416993D01*
X159971500Y-61419800D01*
X137028501Y-61419800D01*
X137000000Y-61416993D01*
X136886260Y-61428195D01*
X136776893Y-61461372D01*
X136676098Y-61515247D01*
X136628045Y-61554684D01*
X136587752Y-61587752D01*
X136569582Y-61609892D01*
X135609892Y-62569582D01*
X135587752Y-62587752D01*
X135515247Y-62676100D01*
X135461372Y-62776894D01*
X135428195Y-62886262D01*
X135419800Y-62971500D01*
X135419800Y-62971509D01*
X135416994Y-63000000D01*
X135127000Y-63000000D01*
X135127000Y-61127000D01*
X198873000Y-61127000D01*
X198873000Y-118873000D01*
%TA.AperFunction,Conductor*%
D31*
G36*
X198873000Y-118873000D02*
G01*
X135127000Y-118873000D01*
X135127000Y-63000000D01*
X135416994Y-63000000D01*
X135419800Y-63028491D01*
X135419801Y-116971499D01*
X135416994Y-117000000D01*
X135428196Y-117113739D01*
X135461373Y-117223107D01*
X135515248Y-117323901D01*
X135569584Y-117390110D01*
X135569588Y-117390114D01*
X135587753Y-117412248D01*
X135609887Y-117430413D01*
X136569582Y-118390108D01*
X136587752Y-118412248D01*
X136609890Y-118430416D01*
X136676098Y-118484753D01*
X136776893Y-118538628D01*
X136886260Y-118571805D01*
X137000000Y-118583007D01*
X137028501Y-118580200D01*
X168971509Y-118580200D01*
X169000000Y-118583006D01*
X169028491Y-118580200D01*
X169028501Y-118580200D01*
X169113739Y-118571805D01*
X169223107Y-118538628D01*
X169323901Y-118484753D01*
X169412248Y-118412248D01*
X169430418Y-118390108D01*
X170390109Y-117430417D01*
X170412248Y-117412248D01*
X170445316Y-117371955D01*
X170484753Y-117323902D01*
X170538628Y-117223107D01*
X170571805Y-117113740D01*
X170583007Y-117000000D01*
X170580200Y-116971499D01*
X170580200Y-116028501D01*
X170583007Y-116000000D01*
X170571805Y-115886260D01*
X170538628Y-115776893D01*
X170484753Y-115676098D01*
X170430416Y-115609890D01*
X170412248Y-115587752D01*
X170390108Y-115569582D01*
X169430416Y-114609890D01*
X169412248Y-114587752D01*
X169323901Y-114515247D01*
X169223107Y-114461372D01*
X169113739Y-114428195D01*
X169028501Y-114419800D01*
X169028491Y-114419800D01*
X169000000Y-114416994D01*
X168971509Y-114419800D01*
X168886516Y-114419800D01*
X168974356Y-114372848D01*
X169069646Y-114294646D01*
X169147848Y-114199356D01*
X169205958Y-114090641D01*
X169241741Y-113972678D01*
X169253824Y-113850001D01*
X169253824Y-113049999D01*
X169250839Y-113019688D01*
X170260114Y-112010413D01*
X170282248Y-111992248D01*
X170300413Y-111970114D01*
X170300416Y-111970111D01*
X170354752Y-111903902D01*
X170383563Y-111850000D01*
X170408628Y-111803107D01*
X170441805Y-111693739D01*
X170450200Y-111608501D01*
X170450200Y-111608492D01*
X170453006Y-111580001D01*
X170450200Y-111551510D01*
X170450200Y-99818977D01*
X170562575Y-99758912D01*
X170751481Y-99603881D01*
X170906512Y-99414974D01*
X171021710Y-99199453D01*
X171092649Y-98965599D01*
X171110600Y-98783339D01*
X171110600Y-98356661D01*
X171169400Y-98356661D01*
X171169400Y-98783340D01*
X171187351Y-98965600D01*
X171258290Y-99199454D01*
X171373489Y-99414975D01*
X171528520Y-99603881D01*
X171717426Y-99758912D01*
X171932947Y-99874110D01*
X172166801Y-99945049D01*
X172410000Y-99969002D01*
X172653200Y-99945049D01*
X172887054Y-99874110D01*
X173102575Y-99758912D01*
X173291481Y-99603881D01*
X173446512Y-99414974D01*
X173561710Y-99199453D01*
X173632649Y-98965599D01*
X173650600Y-98783339D01*
X173650600Y-98356661D01*
X173709400Y-98356661D01*
X173709400Y-98783340D01*
X173727351Y-98965600D01*
X173798290Y-99199454D01*
X173913489Y-99414975D01*
X174068520Y-99603881D01*
X174257426Y-99758912D01*
X174472947Y-99874110D01*
X174706801Y-99945049D01*
X174950000Y-99969002D01*
X175193200Y-99945049D01*
X175427054Y-99874110D01*
X175642575Y-99758912D01*
X175831481Y-99603881D01*
X175986512Y-99414974D01*
X176101710Y-99199453D01*
X176172649Y-98965599D01*
X176190600Y-98783339D01*
X176190600Y-98356661D01*
X176249400Y-98356661D01*
X176249400Y-98783340D01*
X176267351Y-98965600D01*
X176338290Y-99199454D01*
X176453489Y-99414975D01*
X176608520Y-99603881D01*
X176797426Y-99758912D01*
X177012947Y-99874110D01*
X177246801Y-99945049D01*
X177490000Y-99969002D01*
X177733200Y-99945049D01*
X177967054Y-99874110D01*
X178182575Y-99758912D01*
X178371481Y-99603881D01*
X178526512Y-99414974D01*
X178641710Y-99199453D01*
X178712649Y-98965599D01*
X178730600Y-98783339D01*
X178730600Y-98356660D01*
X178712649Y-98174400D01*
X178641710Y-97940546D01*
X178526512Y-97725025D01*
X178371481Y-97536119D01*
X178182574Y-97381088D01*
X177967053Y-97265890D01*
X177733199Y-97194951D01*
X177490000Y-97170998D01*
X177246800Y-97194951D01*
X177012946Y-97265890D01*
X176797425Y-97381088D01*
X176608519Y-97536119D01*
X176453488Y-97725026D01*
X176338290Y-97940547D01*
X176267351Y-98174401D01*
X176249400Y-98356661D01*
X176190600Y-98356661D01*
X176190600Y-98356660D01*
X176172649Y-98174400D01*
X176101710Y-97940546D01*
X175986512Y-97725025D01*
X175831481Y-97536119D01*
X175642574Y-97381088D01*
X175427053Y-97265890D01*
X175193199Y-97194951D01*
X174950000Y-97170998D01*
X174706800Y-97194951D01*
X174472946Y-97265890D01*
X174257425Y-97381088D01*
X174068519Y-97536119D01*
X173913488Y-97725026D01*
X173798290Y-97940547D01*
X173727351Y-98174401D01*
X173709400Y-98356661D01*
X173650600Y-98356661D01*
X173650600Y-98356660D01*
X173632649Y-98174400D01*
X173561710Y-97940546D01*
X173446512Y-97725025D01*
X173291481Y-97536119D01*
X173102574Y-97381088D01*
X172887053Y-97265890D01*
X172653199Y-97194951D01*
X172410000Y-97170998D01*
X172166800Y-97194951D01*
X171932946Y-97265890D01*
X171717425Y-97381088D01*
X171528519Y-97536119D01*
X171373488Y-97725026D01*
X171258290Y-97940547D01*
X171187351Y-98174401D01*
X171169400Y-98356661D01*
X171110600Y-98356661D01*
X171110600Y-98356660D01*
X171092649Y-98174400D01*
X171021710Y-97940546D01*
X170906512Y-97725025D01*
X170751481Y-97536119D01*
X170562574Y-97381088D01*
X170347053Y-97265890D01*
X170113199Y-97194951D01*
X169870000Y-97170998D01*
X169626800Y-97194951D01*
X169392946Y-97265890D01*
X169177425Y-97381088D01*
X168988519Y-97536119D01*
X168833488Y-97725026D01*
X168718290Y-97940547D01*
X168647351Y-98174401D01*
X168629400Y-98356661D01*
X168629400Y-98783340D01*
X168647351Y-98965600D01*
X168718290Y-99199454D01*
X168833489Y-99414975D01*
X168988520Y-99603881D01*
X169177426Y-99758912D01*
X169289800Y-99818977D01*
X169289801Y-111339672D01*
X168208298Y-112421176D01*
X167374999Y-112421176D01*
X167252322Y-112433259D01*
X167134359Y-112469042D01*
X167025644Y-112527152D01*
X166930354Y-112605354D01*
X166852152Y-112700644D01*
X166794042Y-112809359D01*
X166758259Y-112927322D01*
X166746176Y-113049999D01*
X166746176Y-113850001D01*
X166758259Y-113972678D01*
X166794042Y-114090641D01*
X166852152Y-114199356D01*
X166930354Y-114294646D01*
X167025644Y-114372848D01*
X167113484Y-114419800D01*
X148240326Y-114419800D01*
X147580200Y-113759674D01*
X147580200Y-111580200D01*
X153832232Y-111580200D01*
X153832647Y-111581202D01*
X153966927Y-111782167D01*
X154137833Y-111953073D01*
X154338798Y-112087353D01*
X154562097Y-112179847D01*
X154799151Y-112227000D01*
X155040849Y-112227000D01*
X155277903Y-112179847D01*
X155501202Y-112087353D01*
X155702167Y-111953073D01*
X155873073Y-111782167D01*
X156007353Y-111581202D01*
X156056231Y-111463202D01*
X156115843Y-111631252D01*
X156264822Y-111881355D01*
X156459731Y-112097588D01*
X156693080Y-112271641D01*
X156955901Y-112396825D01*
X157103110Y-112441476D01*
X157333000Y-112320155D01*
X157333000Y-111127000D01*
X157313000Y-111127000D01*
X157313000Y-110873000D01*
X157333000Y-110873000D01*
X157333000Y-109679845D01*
X157587000Y-109679845D01*
X157587000Y-110873000D01*
X157607000Y-110873000D01*
X157607000Y-111127000D01*
X157587000Y-111127000D01*
X157587000Y-112320155D01*
X157816890Y-112441476D01*
X157964099Y-112396825D01*
X158226920Y-112271641D01*
X158460269Y-112097588D01*
X158655178Y-111881355D01*
X158771176Y-111686620D01*
X158771176Y-111850000D01*
X158778455Y-111923905D01*
X158800012Y-111994970D01*
X158835019Y-112060463D01*
X158882131Y-112117869D01*
X158939537Y-112164981D01*
X159005030Y-112199988D01*
X159076095Y-112221545D01*
X159150000Y-112228824D01*
X160850000Y-112228824D01*
X160923905Y-112221545D01*
X160994970Y-112199988D01*
X161060463Y-112164981D01*
X161117869Y-112117869D01*
X161164981Y-112060463D01*
X161199988Y-111994970D01*
X161221545Y-111923905D01*
X161228824Y-111850000D01*
X161228824Y-111580200D01*
X165971509Y-111580200D01*
X166000000Y-111583006D01*
X166028491Y-111580200D01*
X166028501Y-111580200D01*
X166113739Y-111571805D01*
X166223107Y-111538628D01*
X166323901Y-111484753D01*
X166412248Y-111412248D01*
X166430418Y-111390108D01*
X167720115Y-110100412D01*
X167742248Y-110082248D01*
X167760413Y-110060114D01*
X167760416Y-110060111D01*
X167814752Y-109993902D01*
X167814753Y-109993901D01*
X167868628Y-109893107D01*
X167901805Y-109783739D01*
X167910200Y-109698501D01*
X167910200Y-109698492D01*
X167913006Y-109670001D01*
X167910200Y-109641510D01*
X167910200Y-99818977D01*
X168022575Y-99758912D01*
X168211481Y-99603881D01*
X168366512Y-99414974D01*
X168481710Y-99199453D01*
X168552649Y-98965599D01*
X168570600Y-98783339D01*
X168570600Y-98356660D01*
X168552649Y-98174400D01*
X168481710Y-97940546D01*
X168366512Y-97725025D01*
X168211481Y-97536119D01*
X168022574Y-97381088D01*
X167807053Y-97265890D01*
X167573199Y-97194951D01*
X167330000Y-97170998D01*
X167086800Y-97194951D01*
X166852946Y-97265890D01*
X166637425Y-97381088D01*
X166448519Y-97536119D01*
X166293488Y-97725026D01*
X166178290Y-97940547D01*
X166107351Y-98174401D01*
X166089400Y-98356661D01*
X166089400Y-98783340D01*
X166107351Y-98965600D01*
X166178290Y-99199454D01*
X166293489Y-99414975D01*
X166448520Y-99603881D01*
X166637426Y-99758912D01*
X166749801Y-99818977D01*
X166749800Y-108698500D01*
X166749801Y-108698510D01*
X166749800Y-109429673D01*
X165759674Y-110419800D01*
X161228824Y-110419800D01*
X161228824Y-110150000D01*
X161221545Y-110076095D01*
X161199988Y-110005030D01*
X161164981Y-109939537D01*
X161117869Y-109882131D01*
X161060463Y-109835019D01*
X160994970Y-109800012D01*
X160923905Y-109778455D01*
X160850000Y-109771176D01*
X159150000Y-109771176D01*
X159076095Y-109778455D01*
X159005030Y-109800012D01*
X158939537Y-109835019D01*
X158882131Y-109882131D01*
X158835019Y-109939537D01*
X158800012Y-110005030D01*
X158778455Y-110076095D01*
X158771176Y-110150000D01*
X158771176Y-110313380D01*
X158655178Y-110118645D01*
X158460269Y-109902412D01*
X158226920Y-109728359D01*
X157964099Y-109603175D01*
X157816890Y-109558524D01*
X157587000Y-109679845D01*
X157333000Y-109679845D01*
X157103110Y-109558524D01*
X156955901Y-109603175D01*
X156693080Y-109728359D01*
X156459731Y-109902412D01*
X156264822Y-110118645D01*
X156115843Y-110368748D01*
X156056231Y-110536798D01*
X156007353Y-110418798D01*
X155873073Y-110217833D01*
X155702167Y-110046927D01*
X155501202Y-109912647D01*
X155277903Y-109820153D01*
X155040849Y-109773000D01*
X154799151Y-109773000D01*
X154562097Y-109820153D01*
X154338798Y-109912647D01*
X154137833Y-110046927D01*
X153966927Y-110217833D01*
X153832647Y-110418798D01*
X153832232Y-110419800D01*
X147580200Y-110419800D01*
X147580200Y-106580200D01*
X153832232Y-106580200D01*
X153832647Y-106581202D01*
X153966927Y-106782167D01*
X154137833Y-106953073D01*
X154338798Y-107087353D01*
X154562097Y-107179847D01*
X154799151Y-107227000D01*
X155040849Y-107227000D01*
X155277903Y-107179847D01*
X155501202Y-107087353D01*
X155702167Y-106953073D01*
X155873073Y-106782167D01*
X156007353Y-106581202D01*
X156056231Y-106463202D01*
X156115843Y-106631252D01*
X156264822Y-106881355D01*
X156459731Y-107097588D01*
X156693080Y-107271641D01*
X156955901Y-107396825D01*
X157103110Y-107441476D01*
X157333000Y-107320155D01*
X157333000Y-106127000D01*
X157313000Y-106127000D01*
X157313000Y-105873000D01*
X157333000Y-105873000D01*
X157333000Y-104679845D01*
X157587000Y-104679845D01*
X157587000Y-105873000D01*
X157607000Y-105873000D01*
X157607000Y-106127000D01*
X157587000Y-106127000D01*
X157587000Y-107320155D01*
X157816890Y-107441476D01*
X157964099Y-107396825D01*
X158226920Y-107271641D01*
X158460269Y-107097588D01*
X158655178Y-106881355D01*
X158771176Y-106686620D01*
X158771176Y-106850000D01*
X158778455Y-106923905D01*
X158800012Y-106994970D01*
X158835019Y-107060463D01*
X158882131Y-107117869D01*
X158939537Y-107164981D01*
X159005030Y-107199988D01*
X159076095Y-107221545D01*
X159150000Y-107228824D01*
X160850000Y-107228824D01*
X160923905Y-107221545D01*
X160994970Y-107199988D01*
X161060463Y-107164981D01*
X161117869Y-107117869D01*
X161164981Y-107060463D01*
X161199988Y-106994970D01*
X161221545Y-106923905D01*
X161228824Y-106850000D01*
X161228824Y-106580200D01*
X163971509Y-106580200D01*
X164000000Y-106583006D01*
X164028491Y-106580200D01*
X164028501Y-106580200D01*
X164113739Y-106571805D01*
X164223107Y-106538628D01*
X164323901Y-106484753D01*
X164412248Y-106412248D01*
X164430418Y-106390108D01*
X165180109Y-105640417D01*
X165202248Y-105622248D01*
X165235316Y-105581955D01*
X165274753Y-105533902D01*
X165328628Y-105433107D01*
X165348151Y-105368748D01*
X165361805Y-105323739D01*
X165370200Y-105238501D01*
X165370200Y-105238491D01*
X165373006Y-105210000D01*
X165370200Y-105181509D01*
X165370200Y-99818977D01*
X165482575Y-99758912D01*
X165671481Y-99603881D01*
X165826512Y-99414974D01*
X165941710Y-99199453D01*
X166012649Y-98965599D01*
X166030600Y-98783339D01*
X166030600Y-98356660D01*
X166012649Y-98174400D01*
X165941710Y-97940546D01*
X165826512Y-97725025D01*
X165671481Y-97536119D01*
X165482574Y-97381088D01*
X165267053Y-97265890D01*
X165033199Y-97194951D01*
X164790000Y-97170998D01*
X164546800Y-97194951D01*
X164312946Y-97265890D01*
X164097425Y-97381088D01*
X163908519Y-97536119D01*
X163753488Y-97725026D01*
X163638290Y-97940547D01*
X163567351Y-98174401D01*
X163549400Y-98356661D01*
X163549400Y-98783340D01*
X163567351Y-98965600D01*
X163638290Y-99199454D01*
X163753489Y-99414975D01*
X163908520Y-99603881D01*
X164097426Y-99758912D01*
X164209801Y-99818977D01*
X164209800Y-102761499D01*
X164209800Y-103238500D01*
X164209801Y-103238508D01*
X164209800Y-104969674D01*
X163759674Y-105419800D01*
X161228824Y-105419800D01*
X161228824Y-105150000D01*
X161221545Y-105076095D01*
X161199988Y-105005030D01*
X161164981Y-104939537D01*
X161117869Y-104882131D01*
X161060463Y-104835019D01*
X160994970Y-104800012D01*
X160923905Y-104778455D01*
X160850000Y-104771176D01*
X159150000Y-104771176D01*
X159076095Y-104778455D01*
X159005030Y-104800012D01*
X158939537Y-104835019D01*
X158882131Y-104882131D01*
X158835019Y-104939537D01*
X158800012Y-105005030D01*
X158778455Y-105076095D01*
X158771176Y-105150000D01*
X158771176Y-105313380D01*
X158655178Y-105118645D01*
X158460269Y-104902412D01*
X158226920Y-104728359D01*
X157964099Y-104603175D01*
X157816890Y-104558524D01*
X157587000Y-104679845D01*
X157333000Y-104679845D01*
X157103110Y-104558524D01*
X156955901Y-104603175D01*
X156693080Y-104728359D01*
X156459731Y-104902412D01*
X156264822Y-105118645D01*
X156115843Y-105368748D01*
X156056231Y-105536798D01*
X156007353Y-105418798D01*
X155873073Y-105217833D01*
X155702167Y-105046927D01*
X155501202Y-104912647D01*
X155277903Y-104820153D01*
X155040849Y-104773000D01*
X154799151Y-104773000D01*
X154562097Y-104820153D01*
X154338798Y-104912647D01*
X154137833Y-105046927D01*
X153966927Y-105217833D01*
X153832647Y-105418798D01*
X153832232Y-105419800D01*
X147580200Y-105419800D01*
X147580200Y-98356661D01*
X150849400Y-98356661D01*
X150849400Y-98783340D01*
X150867351Y-98965600D01*
X150938290Y-99199454D01*
X151053489Y-99414975D01*
X151208520Y-99603881D01*
X151397426Y-99758912D01*
X151612947Y-99874110D01*
X151846801Y-99945049D01*
X152090000Y-99969002D01*
X152333200Y-99945049D01*
X152567054Y-99874110D01*
X152782575Y-99758912D01*
X152971481Y-99603881D01*
X153126512Y-99414974D01*
X153241710Y-99199453D01*
X153312649Y-98965599D01*
X153330600Y-98783339D01*
X153330600Y-98356661D01*
X153389400Y-98356661D01*
X153389400Y-98783340D01*
X153407351Y-98965600D01*
X153478290Y-99199454D01*
X153593489Y-99414975D01*
X153748520Y-99603881D01*
X153937426Y-99758912D01*
X154152947Y-99874110D01*
X154386801Y-99945049D01*
X154630000Y-99969002D01*
X154873200Y-99945049D01*
X155107054Y-99874110D01*
X155322575Y-99758912D01*
X155511481Y-99603881D01*
X155666512Y-99414974D01*
X155781710Y-99199453D01*
X155852649Y-98965599D01*
X155870600Y-98783339D01*
X155870600Y-98356661D01*
X155929400Y-98356661D01*
X155929400Y-98783340D01*
X155947351Y-98965600D01*
X156018290Y-99199454D01*
X156133489Y-99414975D01*
X156288520Y-99603881D01*
X156477426Y-99758912D01*
X156692947Y-99874110D01*
X156926801Y-99945049D01*
X157170000Y-99969002D01*
X157413200Y-99945049D01*
X157647054Y-99874110D01*
X157862575Y-99758912D01*
X158051481Y-99603881D01*
X158206512Y-99414974D01*
X158302485Y-99235420D01*
X158418046Y-99484321D01*
X158591514Y-99721729D01*
X158807965Y-99920733D01*
X159059081Y-100073686D01*
X159335211Y-100174709D01*
X159350974Y-100177358D01*
X159583000Y-100056217D01*
X159583000Y-98697000D01*
X159563000Y-98697000D01*
X159563000Y-98443000D01*
X159583000Y-98443000D01*
X159583000Y-97083783D01*
X159837000Y-97083783D01*
X159837000Y-98443000D01*
X159857000Y-98443000D01*
X159857000Y-98697000D01*
X159837000Y-98697000D01*
X159837000Y-100056217D01*
X160069026Y-100177358D01*
X160084789Y-100174709D01*
X160360919Y-100073686D01*
X160612035Y-99920733D01*
X160828486Y-99721729D01*
X161001954Y-99484321D01*
X161117515Y-99235420D01*
X161213489Y-99414975D01*
X161368520Y-99603881D01*
X161557426Y-99758912D01*
X161772947Y-99874110D01*
X162006801Y-99945049D01*
X162250000Y-99969002D01*
X162493200Y-99945049D01*
X162727054Y-99874110D01*
X162942575Y-99758912D01*
X163131481Y-99603881D01*
X163286512Y-99414974D01*
X163401710Y-99199453D01*
X163472649Y-98965599D01*
X163490600Y-98783339D01*
X163490600Y-98356660D01*
X163472649Y-98174400D01*
X163401710Y-97940546D01*
X163286512Y-97725025D01*
X163131481Y-97536119D01*
X162942574Y-97381088D01*
X162830200Y-97321023D01*
X162830200Y-94990326D01*
X164320326Y-93500200D01*
X186971509Y-93500200D01*
X187000000Y-93503006D01*
X187028491Y-93500200D01*
X187028501Y-93500200D01*
X187113739Y-93491805D01*
X187223107Y-93458628D01*
X187323901Y-93404753D01*
X187412248Y-93332248D01*
X187430418Y-93310108D01*
X188095752Y-92644774D01*
X188267818Y-92679000D01*
X188492182Y-92679000D01*
X188712234Y-92635229D01*
X188919519Y-92549369D01*
X189106070Y-92424719D01*
X189264719Y-92266070D01*
X189389369Y-92079519D01*
X189475229Y-91872234D01*
X189519000Y-91652182D01*
X189519000Y-91427818D01*
X189475229Y-91207766D01*
X189389369Y-91000481D01*
X189358979Y-90954999D01*
X189516710Y-90954999D01*
X189545201Y-90957805D01*
X189573692Y-90954999D01*
X189573702Y-90954999D01*
X189658940Y-90946604D01*
X189768308Y-90913427D01*
X189869102Y-90859552D01*
X189957449Y-90787047D01*
X189975619Y-90764907D01*
X190635752Y-90104774D01*
X190705353Y-90118619D01*
X190529892Y-90294080D01*
X190507752Y-90312250D01*
X190435247Y-90400598D01*
X190381372Y-90501392D01*
X190370474Y-90537318D01*
X190193930Y-90655281D01*
X190035281Y-90813930D01*
X189910631Y-91000481D01*
X189824771Y-91207766D01*
X189781000Y-91427818D01*
X189781000Y-91652182D01*
X189824771Y-91872234D01*
X189910631Y-92079519D01*
X190035281Y-92266070D01*
X190193930Y-92424719D01*
X190380481Y-92549369D01*
X190587766Y-92635229D01*
X190807818Y-92679000D01*
X191032182Y-92679000D01*
X191252234Y-92635229D01*
X191459519Y-92549369D01*
X191505002Y-92518978D01*
X191505002Y-92674472D01*
X189759674Y-94419800D01*
X181028490Y-94419800D01*
X180999999Y-94416994D01*
X180971508Y-94419800D01*
X180971499Y-94419800D01*
X180886261Y-94428195D01*
X180776893Y-94461372D01*
X180676099Y-94515247D01*
X180676097Y-94515248D01*
X180676098Y-94515248D01*
X180609889Y-94569584D01*
X180609886Y-94569587D01*
X180587752Y-94587752D01*
X180569587Y-94609886D01*
X179639892Y-95539582D01*
X179617752Y-95557752D01*
X179545247Y-95646100D01*
X179491372Y-95746894D01*
X179458195Y-95856262D01*
X179449800Y-95941500D01*
X179449800Y-95941509D01*
X179446994Y-95970000D01*
X179449800Y-95998491D01*
X179449801Y-97321022D01*
X179337425Y-97381088D01*
X179148519Y-97536119D01*
X178993488Y-97725026D01*
X178878290Y-97940547D01*
X178807351Y-98174401D01*
X178789400Y-98356661D01*
X178789400Y-98783340D01*
X178807351Y-98965600D01*
X178878290Y-99199454D01*
X178993489Y-99414975D01*
X179148520Y-99603881D01*
X179337426Y-99758912D01*
X179552947Y-99874110D01*
X179786801Y-99945049D01*
X180030000Y-99969002D01*
X180273200Y-99945049D01*
X180507054Y-99874110D01*
X180722575Y-99758912D01*
X180911481Y-99603881D01*
X181066512Y-99414974D01*
X181181710Y-99199453D01*
X181252649Y-98965599D01*
X181270600Y-98783339D01*
X181270600Y-98356660D01*
X181252649Y-98174400D01*
X181181710Y-97940546D01*
X181066512Y-97725025D01*
X180911481Y-97536119D01*
X180722574Y-97381088D01*
X180610200Y-97321023D01*
X180610200Y-96210326D01*
X181240327Y-95580200D01*
X189971509Y-95580200D01*
X190000000Y-95583006D01*
X190028491Y-95580200D01*
X190028501Y-95580200D01*
X190113739Y-95571805D01*
X190223107Y-95538628D01*
X190323901Y-95484753D01*
X190412248Y-95412248D01*
X190430418Y-95390108D01*
X192475309Y-93345217D01*
X192497449Y-93327047D01*
X192552599Y-93259847D01*
X192569954Y-93238701D01*
X192623829Y-93137906D01*
X192657006Y-93028539D01*
X192668208Y-92914799D01*
X192665401Y-92886298D01*
X192665401Y-92356190D01*
X192733930Y-92424719D01*
X192920481Y-92549369D01*
X193127766Y-92635229D01*
X193347818Y-92679000D01*
X193572182Y-92679000D01*
X193792234Y-92635229D01*
X193999519Y-92549369D01*
X194186070Y-92424719D01*
X194344719Y-92266070D01*
X194469369Y-92079519D01*
X194555229Y-91872234D01*
X194599000Y-91652182D01*
X194599000Y-91427818D01*
X194564774Y-91255752D01*
X195015315Y-90805212D01*
X195037449Y-90787047D01*
X195055614Y-90764913D01*
X195055617Y-90764910D01*
X195109953Y-90698701D01*
X195111398Y-90695998D01*
X195163829Y-90597906D01*
X195197006Y-90488538D01*
X195205401Y-90403300D01*
X195205401Y-90403291D01*
X195206028Y-90396923D01*
X195238000Y-90400072D01*
X195714250Y-90397000D01*
X195873000Y-90238250D01*
X195873000Y-89127000D01*
X196127000Y-89127000D01*
X196127000Y-90238250D01*
X196285750Y-90397000D01*
X196762000Y-90400072D01*
X196886482Y-90387812D01*
X197006180Y-90351502D01*
X197116494Y-90292537D01*
X197213185Y-90213185D01*
X197292537Y-90116494D01*
X197351502Y-90006180D01*
X197387812Y-89886482D01*
X197400072Y-89762000D01*
X197397000Y-89285750D01*
X197238250Y-89127000D01*
X196127000Y-89127000D01*
X195873000Y-89127000D01*
X195853000Y-89127000D01*
X195853000Y-88873000D01*
X195873000Y-88873000D01*
X195873000Y-87761750D01*
X196127000Y-87761750D01*
X196127000Y-88873000D01*
X197238250Y-88873000D01*
X197397000Y-88714250D01*
X197400072Y-88238000D01*
X197387812Y-88113518D01*
X197351502Y-87993820D01*
X197292537Y-87883506D01*
X197213185Y-87786815D01*
X197116494Y-87707463D01*
X197006180Y-87648498D01*
X196886482Y-87612188D01*
X196762000Y-87599928D01*
X196285750Y-87603000D01*
X196127000Y-87761750D01*
X195873000Y-87761750D01*
X195714250Y-87603000D01*
X195238000Y-87599928D01*
X195205401Y-87603139D01*
X195205401Y-86403289D01*
X195208207Y-86374798D01*
X195205401Y-86346307D01*
X195205401Y-86346298D01*
X195197006Y-86261060D01*
X195163829Y-86151692D01*
X195109954Y-86050898D01*
X195063825Y-85994690D01*
X195055617Y-85984688D01*
X195055614Y-85984685D01*
X195037449Y-85962551D01*
X195015316Y-85944387D01*
X193680818Y-84609890D01*
X193662650Y-84587752D01*
X193574303Y-84515247D01*
X193473509Y-84461372D01*
X193364141Y-84428195D01*
X193278903Y-84419800D01*
X193278893Y-84419800D01*
X193250402Y-84416994D01*
X193221911Y-84419800D01*
X181240326Y-84419800D01*
X181034503Y-84213977D01*
X181066512Y-84174974D01*
X181181710Y-83959453D01*
X181252649Y-83725599D01*
X181270600Y-83543339D01*
X181270600Y-83116660D01*
X181252649Y-82934400D01*
X181181710Y-82700546D01*
X181066512Y-82485025D01*
X180911481Y-82296119D01*
X180722574Y-82141088D01*
X180507053Y-82025890D01*
X180273199Y-81954951D01*
X180030000Y-81930998D01*
X179786800Y-81954951D01*
X179552946Y-82025890D01*
X179337425Y-82141088D01*
X179148519Y-82296119D01*
X178993488Y-82485026D01*
X178878290Y-82700547D01*
X178807351Y-82934401D01*
X178789400Y-83116661D01*
X178789400Y-83543340D01*
X178807351Y-83725600D01*
X178878290Y-83959454D01*
X178993489Y-84174975D01*
X179148520Y-84363881D01*
X179337426Y-84518912D01*
X179552947Y-84634110D01*
X179786801Y-84705049D01*
X179895199Y-84715725D01*
X180569582Y-85390108D01*
X180587752Y-85412248D01*
X180609890Y-85430416D01*
X180676098Y-85484753D01*
X180776893Y-85538628D01*
X180886260Y-85571805D01*
X181000000Y-85583007D01*
X181028501Y-85580200D01*
X193010076Y-85580200D01*
X194045001Y-86615126D01*
X194045001Y-88021022D01*
X193999519Y-87990631D01*
X193792234Y-87904771D01*
X193572182Y-87861000D01*
X193347818Y-87861000D01*
X193127766Y-87904771D01*
X192920481Y-87990631D01*
X192733930Y-88115281D01*
X192665401Y-88183810D01*
X192665401Y-88113692D01*
X192668207Y-88085201D01*
X192665401Y-88056710D01*
X192665401Y-88056700D01*
X192657006Y-87971462D01*
X192630324Y-87883506D01*
X192623829Y-87862093D01*
X192583592Y-87786815D01*
X192569954Y-87761300D01*
X192516445Y-87696099D01*
X192515617Y-87695090D01*
X192515614Y-87695087D01*
X192497449Y-87672953D01*
X192475316Y-87654789D01*
X191430415Y-86609889D01*
X191412248Y-86587752D01*
X191323901Y-86515247D01*
X191223107Y-86461372D01*
X191113739Y-86428195D01*
X191028501Y-86419800D01*
X191028491Y-86419800D01*
X191000000Y-86416994D01*
X190971509Y-86419800D01*
X178240327Y-86419800D01*
X178070200Y-86249674D01*
X178070200Y-84578977D01*
X178182575Y-84518912D01*
X178371481Y-84363881D01*
X178526512Y-84174974D01*
X178641710Y-83959453D01*
X178712649Y-83725599D01*
X178730600Y-83543339D01*
X178730600Y-83116660D01*
X178712649Y-82934400D01*
X178641710Y-82700546D01*
X178526512Y-82485025D01*
X178371481Y-82296119D01*
X178182574Y-82141088D01*
X177967053Y-82025890D01*
X177733199Y-81954951D01*
X177490000Y-81930998D01*
X177246800Y-81954951D01*
X177012946Y-82025890D01*
X176797425Y-82141088D01*
X176608519Y-82296119D01*
X176453488Y-82485026D01*
X176338290Y-82700547D01*
X176267351Y-82934401D01*
X176249400Y-83116661D01*
X176249400Y-83543340D01*
X176267351Y-83725600D01*
X176338290Y-83959454D01*
X176453489Y-84174975D01*
X176608520Y-84363881D01*
X176797426Y-84518912D01*
X176909800Y-84578977D01*
X176909801Y-86461499D01*
X176906994Y-86490000D01*
X176918196Y-86603739D01*
X176951373Y-86713107D01*
X177005248Y-86813901D01*
X177059584Y-86880110D01*
X177059588Y-86880114D01*
X177077753Y-86902248D01*
X177099887Y-86920413D01*
X177569587Y-87390113D01*
X177587752Y-87412248D01*
X177609886Y-87430413D01*
X177609889Y-87430416D01*
X177631554Y-87448196D01*
X177676099Y-87484753D01*
X177776893Y-87538628D01*
X177886261Y-87571805D01*
X177971499Y-87580200D01*
X177971509Y-87580200D01*
X178000000Y-87583006D01*
X178028491Y-87580200D01*
X190759674Y-87580200D01*
X191042532Y-87863059D01*
X191032182Y-87861000D01*
X190807818Y-87861000D01*
X190587766Y-87904771D01*
X190380481Y-87990631D01*
X190193930Y-88115281D01*
X190035281Y-88273930D01*
X189910631Y-88460481D01*
X189824771Y-88667766D01*
X189781000Y-88887818D01*
X189781000Y-89112182D01*
X189815226Y-89284248D01*
X189304875Y-89794599D01*
X189196190Y-89794599D01*
X189264719Y-89726070D01*
X189389369Y-89539519D01*
X189475229Y-89332234D01*
X189519000Y-89112182D01*
X189519000Y-88887818D01*
X189475229Y-88667766D01*
X189389369Y-88460481D01*
X189264719Y-88273930D01*
X189106070Y-88115281D01*
X188919519Y-87990631D01*
X188712234Y-87904771D01*
X188492182Y-87861000D01*
X188267818Y-87861000D01*
X188047766Y-87904771D01*
X187840481Y-87990631D01*
X187653930Y-88115281D01*
X187495281Y-88273930D01*
X187397813Y-88419800D01*
X176240327Y-88419800D01*
X175530200Y-87709674D01*
X175530200Y-84578977D01*
X175642575Y-84518912D01*
X175831481Y-84363881D01*
X175986512Y-84174974D01*
X176101710Y-83959453D01*
X176172649Y-83725599D01*
X176190600Y-83543339D01*
X176190600Y-83116660D01*
X176172649Y-82934400D01*
X176101710Y-82700546D01*
X175986512Y-82485025D01*
X175831481Y-82296119D01*
X175642574Y-82141088D01*
X175427053Y-82025890D01*
X175193199Y-81954951D01*
X174950000Y-81930998D01*
X174706800Y-81954951D01*
X174472946Y-82025890D01*
X174257425Y-82141088D01*
X174068519Y-82296119D01*
X173913488Y-82485026D01*
X173798290Y-82700547D01*
X173727351Y-82934401D01*
X173709400Y-83116661D01*
X173709400Y-83543340D01*
X173727351Y-83725600D01*
X173798290Y-83959454D01*
X173913489Y-84174975D01*
X174068520Y-84363881D01*
X174257426Y-84518912D01*
X174369800Y-84578977D01*
X174369801Y-87921499D01*
X174366994Y-87950000D01*
X174378196Y-88063739D01*
X174411373Y-88173107D01*
X174465248Y-88273901D01*
X174519584Y-88340110D01*
X174519588Y-88340114D01*
X174537753Y-88362248D01*
X174559887Y-88380413D01*
X175569587Y-89390114D01*
X175587752Y-89412248D01*
X175609886Y-89430413D01*
X175609889Y-89430416D01*
X175619741Y-89438501D01*
X175676099Y-89484753D01*
X175776893Y-89538628D01*
X175886261Y-89571805D01*
X175971499Y-89580200D01*
X175971508Y-89580200D01*
X175999999Y-89583006D01*
X176028490Y-89580200D01*
X187397813Y-89580200D01*
X187495281Y-89726070D01*
X187563810Y-89794599D01*
X186653692Y-89794599D01*
X186625201Y-89791793D01*
X186596710Y-89794599D01*
X186596700Y-89794599D01*
X186511462Y-89802994D01*
X186402094Y-89836171D01*
X186301300Y-89890046D01*
X186212953Y-89962551D01*
X186194785Y-89984689D01*
X185759674Y-90419800D01*
X174240326Y-90419800D01*
X172990200Y-89169674D01*
X172990200Y-84578977D01*
X173102575Y-84518912D01*
X173291481Y-84363881D01*
X173446512Y-84174974D01*
X173561710Y-83959453D01*
X173632649Y-83725599D01*
X173650600Y-83543339D01*
X173650600Y-83116660D01*
X173632649Y-82934400D01*
X173561710Y-82700546D01*
X173446512Y-82485025D01*
X173291481Y-82296119D01*
X173102574Y-82141088D01*
X172887053Y-82025890D01*
X172653199Y-81954951D01*
X172410000Y-81930998D01*
X172166800Y-81954951D01*
X171932946Y-82025890D01*
X171717425Y-82141088D01*
X171528519Y-82296119D01*
X171373488Y-82485026D01*
X171258290Y-82700547D01*
X171187351Y-82934401D01*
X171169400Y-83116661D01*
X171169400Y-83543340D01*
X171187351Y-83725600D01*
X171258290Y-83959454D01*
X171373489Y-84174975D01*
X171528520Y-84363881D01*
X171717426Y-84518912D01*
X171829800Y-84578977D01*
X171829801Y-89381499D01*
X171826994Y-89410000D01*
X171838196Y-89523739D01*
X171871373Y-89633107D01*
X171925248Y-89733901D01*
X171979584Y-89800110D01*
X171979588Y-89800114D01*
X171997753Y-89822248D01*
X172019887Y-89840413D01*
X173569582Y-91390108D01*
X173587752Y-91412248D01*
X173609890Y-91430416D01*
X173676098Y-91484753D01*
X173776893Y-91538628D01*
X173886260Y-91571805D01*
X174000000Y-91583007D01*
X174028501Y-91580200D01*
X185971509Y-91580200D01*
X186000000Y-91583006D01*
X186028491Y-91580200D01*
X186028501Y-91580200D01*
X186113739Y-91571805D01*
X186223107Y-91538628D01*
X186323901Y-91484753D01*
X186412248Y-91412248D01*
X186430418Y-91390108D01*
X186865527Y-90954999D01*
X187401021Y-90954999D01*
X187370631Y-91000481D01*
X187284771Y-91207766D01*
X187241000Y-91427818D01*
X187241000Y-91652182D01*
X187275226Y-91824248D01*
X186759674Y-92339800D01*
X164108491Y-92339800D01*
X164080000Y-92336994D01*
X164051509Y-92339800D01*
X164051499Y-92339800D01*
X163966261Y-92348195D01*
X163856893Y-92381372D01*
X163756099Y-92435247D01*
X163667752Y-92507752D01*
X163649584Y-92529890D01*
X161859892Y-94319582D01*
X161837752Y-94337752D01*
X161765247Y-94426100D01*
X161711372Y-94526894D01*
X161678195Y-94636262D01*
X161669800Y-94721500D01*
X161669800Y-94721509D01*
X161666994Y-94750000D01*
X161669800Y-94778491D01*
X161669801Y-97321022D01*
X161557425Y-97381088D01*
X161368519Y-97536119D01*
X161213488Y-97725026D01*
X161117515Y-97904580D01*
X161001954Y-97655679D01*
X160828486Y-97418271D01*
X160612035Y-97219267D01*
X160360919Y-97066314D01*
X160084789Y-96965291D01*
X160069026Y-96962642D01*
X159837000Y-97083783D01*
X159583000Y-97083783D01*
X159350974Y-96962642D01*
X159335211Y-96965291D01*
X159059081Y-97066314D01*
X158807965Y-97219267D01*
X158591514Y-97418271D01*
X158418046Y-97655679D01*
X158302486Y-97904579D01*
X158206512Y-97725025D01*
X158051481Y-97536119D01*
X157862574Y-97381088D01*
X157647053Y-97265890D01*
X157413199Y-97194951D01*
X157170000Y-97170998D01*
X156926800Y-97194951D01*
X156692946Y-97265890D01*
X156477425Y-97381088D01*
X156288519Y-97536119D01*
X156133488Y-97725026D01*
X156018290Y-97940547D01*
X155947351Y-98174401D01*
X155929400Y-98356661D01*
X155870600Y-98356661D01*
X155870600Y-98356660D01*
X155852649Y-98174400D01*
X155781710Y-97940546D01*
X155666512Y-97725025D01*
X155511481Y-97536119D01*
X155322574Y-97381088D01*
X155107053Y-97265890D01*
X154873199Y-97194951D01*
X154630000Y-97170998D01*
X154386800Y-97194951D01*
X154152946Y-97265890D01*
X153937425Y-97381088D01*
X153748519Y-97536119D01*
X153593488Y-97725026D01*
X153478290Y-97940547D01*
X153407351Y-98174401D01*
X153389400Y-98356661D01*
X153330600Y-98356661D01*
X153330600Y-98356660D01*
X153312649Y-98174400D01*
X153241710Y-97940546D01*
X153126512Y-97725025D01*
X152971481Y-97536119D01*
X152782574Y-97381088D01*
X152567053Y-97265890D01*
X152333199Y-97194951D01*
X152090000Y-97170998D01*
X151846800Y-97194951D01*
X151612946Y-97265890D01*
X151397425Y-97381088D01*
X151208519Y-97536119D01*
X151053488Y-97725026D01*
X150938290Y-97940547D01*
X150867351Y-98174401D01*
X150849400Y-98356661D01*
X147580200Y-98356661D01*
X147580200Y-95707768D01*
X147581202Y-95707353D01*
X147782167Y-95573073D01*
X147953073Y-95402167D01*
X148087353Y-95201202D01*
X148179847Y-94977903D01*
X148227000Y-94740849D01*
X148227000Y-94499151D01*
X148179847Y-94262097D01*
X148087353Y-94038798D01*
X147953073Y-93837833D01*
X147782167Y-93666927D01*
X147581202Y-93532647D01*
X147357903Y-93440153D01*
X147120849Y-93393000D01*
X146879151Y-93393000D01*
X146642097Y-93440153D01*
X146418798Y-93532647D01*
X146217833Y-93666927D01*
X146046927Y-93837833D01*
X145912647Y-94038798D01*
X145820153Y-94262097D01*
X145773000Y-94499151D01*
X145773000Y-94740849D01*
X145820153Y-94977903D01*
X145912647Y-95201202D01*
X146046927Y-95402167D01*
X146217833Y-95573073D01*
X146418798Y-95707353D01*
X146419800Y-95707768D01*
X146419801Y-105971489D01*
X146416993Y-106000000D01*
X146419800Y-106028501D01*
X146419801Y-110971489D01*
X146416993Y-111000000D01*
X146419801Y-111028511D01*
X146419800Y-113971509D01*
X146416994Y-114000000D01*
X146419800Y-114028491D01*
X146419800Y-114028500D01*
X146428195Y-114113738D01*
X146461372Y-114223106D01*
X146515247Y-114323900D01*
X146587752Y-114412248D01*
X146609892Y-114430418D01*
X147569582Y-115390108D01*
X147587752Y-115412248D01*
X147609890Y-115430416D01*
X147676098Y-115484753D01*
X147776893Y-115538628D01*
X147886260Y-115571805D01*
X148000000Y-115583007D01*
X148028501Y-115580200D01*
X167113484Y-115580200D01*
X167025644Y-115627152D01*
X166930354Y-115705354D01*
X166852152Y-115800644D01*
X166794042Y-115909359D01*
X166775708Y-115969800D01*
X145790327Y-115969800D01*
X144580200Y-114759674D01*
X144580200Y-114696912D01*
X144717975Y-114604855D01*
X144874855Y-114447975D01*
X144998114Y-114263503D01*
X145083017Y-114058530D01*
X145126300Y-113840931D01*
X145126300Y-113619069D01*
X145083017Y-113401470D01*
X144998114Y-113196497D01*
X144874855Y-113012025D01*
X144717975Y-112855145D01*
X144533503Y-112731886D01*
X144328530Y-112646983D01*
X144110931Y-112603700D01*
X143889069Y-112603700D01*
X143671470Y-112646983D01*
X143466497Y-112731886D01*
X143282025Y-112855145D01*
X143125145Y-113012025D01*
X143001886Y-113196497D01*
X142916983Y-113401470D01*
X142873700Y-113619069D01*
X142873700Y-113840931D01*
X142916983Y-114058530D01*
X143001886Y-114263503D01*
X143125145Y-114447975D01*
X143282025Y-114604855D01*
X143419801Y-114696913D01*
X143419801Y-114971500D01*
X143416994Y-115000000D01*
X143428196Y-115113739D01*
X143461373Y-115223107D01*
X143515248Y-115323901D01*
X143569584Y-115390110D01*
X143569588Y-115390114D01*
X143587753Y-115412248D01*
X143609887Y-115430413D01*
X145119587Y-116940114D01*
X145137752Y-116962248D01*
X145159886Y-116980413D01*
X145159889Y-116980416D01*
X145208890Y-117020630D01*
X145226099Y-117034753D01*
X145326893Y-117088628D01*
X145436261Y-117121805D01*
X145521499Y-117130200D01*
X145521508Y-117130200D01*
X145549999Y-117133006D01*
X145578490Y-117130200D01*
X166775708Y-117130200D01*
X166794042Y-117190641D01*
X166852152Y-117299356D01*
X166930354Y-117394646D01*
X166961004Y-117419800D01*
X137240326Y-117419800D01*
X136580200Y-116759674D01*
X136580200Y-115956493D01*
X140683112Y-115956493D01*
X140748552Y-116195290D01*
X140995412Y-116311120D01*
X141260126Y-116376564D01*
X141532521Y-116389107D01*
X141802129Y-116348268D01*
X142058589Y-116255615D01*
X142171448Y-116195290D01*
X142236888Y-115956493D01*
X141460000Y-115179605D01*
X140683112Y-115956493D01*
X136580200Y-115956493D01*
X136580200Y-115072521D01*
X140070893Y-115072521D01*
X140111732Y-115342129D01*
X140204385Y-115598589D01*
X140264710Y-115711448D01*
X140503507Y-115776888D01*
X141280395Y-115000000D01*
X141639605Y-115000000D01*
X142416493Y-115776888D01*
X142655290Y-115711448D01*
X142771120Y-115464588D01*
X142836564Y-115199874D01*
X142849107Y-114927479D01*
X142808268Y-114657871D01*
X142715615Y-114401411D01*
X142655290Y-114288552D01*
X142416493Y-114223112D01*
X141639605Y-115000000D01*
X141280395Y-115000000D01*
X140503507Y-114223112D01*
X140264710Y-114288552D01*
X140148880Y-114535412D01*
X140083436Y-114800126D01*
X140070893Y-115072521D01*
X136580200Y-115072521D01*
X136580200Y-114043507D01*
X140683112Y-114043507D01*
X141460000Y-114820395D01*
X142236888Y-114043507D01*
X142171448Y-113804710D01*
X141924588Y-113688880D01*
X141659874Y-113623436D01*
X141387479Y-113610893D01*
X141117871Y-113651732D01*
X140861411Y-113744385D01*
X140748552Y-113804710D01*
X140683112Y-114043507D01*
X136580200Y-114043507D01*
X136580200Y-86488606D01*
X137489000Y-86488606D01*
X137489000Y-86711394D01*
X137532464Y-86929900D01*
X137617721Y-87135729D01*
X137741495Y-87320970D01*
X137899030Y-87478505D01*
X138084271Y-87602279D01*
X138290100Y-87687536D01*
X138508606Y-87731000D01*
X138731394Y-87731000D01*
X138949900Y-87687536D01*
X139155729Y-87602279D01*
X139340970Y-87478505D01*
X139498505Y-87320970D01*
X139622279Y-87135729D01*
X139707536Y-86929900D01*
X139751000Y-86711394D01*
X139751000Y-86488606D01*
X140029000Y-86488606D01*
X140029000Y-86711394D01*
X140072464Y-86929900D01*
X140157721Y-87135729D01*
X140281495Y-87320970D01*
X140439030Y-87478505D01*
X140579800Y-87572564D01*
X140579801Y-111356444D01*
X140565730Y-111360712D01*
X140500237Y-111395719D01*
X140442831Y-111442831D01*
X140395719Y-111500237D01*
X140360712Y-111565730D01*
X140339155Y-111636795D01*
X140331876Y-111710700D01*
X140331876Y-113209300D01*
X140339155Y-113283205D01*
X140360712Y-113354270D01*
X140395719Y-113419763D01*
X140442831Y-113477169D01*
X140500237Y-113524281D01*
X140565730Y-113559288D01*
X140636795Y-113580845D01*
X140710700Y-113588124D01*
X142209300Y-113588124D01*
X142283205Y-113580845D01*
X142354270Y-113559288D01*
X142419763Y-113524281D01*
X142477169Y-113477169D01*
X142524281Y-113419763D01*
X142559288Y-113354270D01*
X142580845Y-113283205D01*
X142588124Y-113209300D01*
X142588124Y-111710700D01*
X142580845Y-111636795D01*
X142559288Y-111565730D01*
X142524281Y-111500237D01*
X142477169Y-111442831D01*
X142419763Y-111395719D01*
X142354270Y-111360712D01*
X142283205Y-111339155D01*
X142209300Y-111331876D01*
X141740200Y-111331876D01*
X141740200Y-91959151D01*
X145773000Y-91959151D01*
X145773000Y-92200849D01*
X145820153Y-92437903D01*
X145912647Y-92661202D01*
X146046927Y-92862167D01*
X146217833Y-93033073D01*
X146418798Y-93167353D01*
X146642097Y-93259847D01*
X146879151Y-93307000D01*
X147120849Y-93307000D01*
X147357903Y-93259847D01*
X147581202Y-93167353D01*
X147782167Y-93033073D01*
X147953073Y-92862167D01*
X148087353Y-92661202D01*
X148087768Y-92660200D01*
X160891509Y-92660200D01*
X160920000Y-92663006D01*
X160948491Y-92660200D01*
X160948501Y-92660200D01*
X161033739Y-92651805D01*
X161143107Y-92618628D01*
X161243901Y-92564753D01*
X161332248Y-92492248D01*
X161350418Y-92470108D01*
X163910115Y-89910412D01*
X163932248Y-89892248D01*
X163950413Y-89870114D01*
X163950416Y-89870111D01*
X164004752Y-89803902D01*
X164004753Y-89803901D01*
X164058628Y-89703107D01*
X164091805Y-89593739D01*
X164100200Y-89508501D01*
X164100200Y-89508492D01*
X164103006Y-89480001D01*
X164100200Y-89451510D01*
X164100200Y-86999982D01*
X164119676Y-86991915D01*
X164327028Y-86853367D01*
X164503367Y-86677028D01*
X164641915Y-86469676D01*
X164737349Y-86239279D01*
X164786000Y-85994690D01*
X164786000Y-85745310D01*
X164737349Y-85500721D01*
X164641915Y-85270324D01*
X164503367Y-85062972D01*
X164327028Y-84886633D01*
X164119676Y-84748085D01*
X163889279Y-84652651D01*
X163644690Y-84604000D01*
X163395310Y-84604000D01*
X163150721Y-84652651D01*
X162920324Y-84748085D01*
X162712972Y-84886633D01*
X162536633Y-85062972D01*
X162398085Y-85270324D01*
X162302651Y-85500721D01*
X162254000Y-85745310D01*
X162254000Y-85994690D01*
X162302651Y-86239279D01*
X162398085Y-86469676D01*
X162536633Y-86677028D01*
X162712972Y-86853367D01*
X162920324Y-86991915D01*
X162939801Y-86999983D01*
X162939800Y-89239673D01*
X160679674Y-91499800D01*
X148087768Y-91499800D01*
X148087353Y-91498798D01*
X147953073Y-91297833D01*
X147782167Y-91126927D01*
X147581202Y-90992647D01*
X147357903Y-90900153D01*
X147120849Y-90853000D01*
X146879151Y-90853000D01*
X146642097Y-90900153D01*
X146418798Y-90992647D01*
X146217833Y-91126927D01*
X146046927Y-91297833D01*
X145912647Y-91498798D01*
X145820153Y-91722097D01*
X145773000Y-91959151D01*
X141740200Y-91959151D01*
X141740200Y-87850000D01*
X145511928Y-87850000D01*
X145524188Y-87974482D01*
X145560498Y-88094180D01*
X145619463Y-88204494D01*
X145698815Y-88301185D01*
X145795506Y-88380537D01*
X145905820Y-88439502D01*
X146025518Y-88475812D01*
X146150000Y-88488072D01*
X146367553Y-88486888D01*
X146217833Y-88586927D01*
X146046927Y-88757833D01*
X145912647Y-88958798D01*
X145820153Y-89182097D01*
X145773000Y-89419151D01*
X145773000Y-89660849D01*
X145820153Y-89897903D01*
X145912647Y-90121202D01*
X146046927Y-90322167D01*
X146217833Y-90493073D01*
X146418798Y-90627353D01*
X146642097Y-90719847D01*
X146879151Y-90767000D01*
X147120849Y-90767000D01*
X147357903Y-90719847D01*
X147581202Y-90627353D01*
X147782167Y-90493073D01*
X147953073Y-90322167D01*
X148087353Y-90121202D01*
X148087768Y-90120200D01*
X159431509Y-90120200D01*
X159460000Y-90123006D01*
X159488491Y-90120200D01*
X159488501Y-90120200D01*
X159573739Y-90111805D01*
X159683107Y-90078628D01*
X159783901Y-90024753D01*
X159872248Y-89952248D01*
X159890418Y-89930108D01*
X161370109Y-88450417D01*
X161392248Y-88432248D01*
X161425316Y-88391955D01*
X161464753Y-88343902D01*
X161518628Y-88243107D01*
X161532026Y-88198940D01*
X161551805Y-88133739D01*
X161560200Y-88048501D01*
X161560200Y-88048491D01*
X161563006Y-88020000D01*
X161560200Y-87991509D01*
X161560200Y-86999982D01*
X161579676Y-86991915D01*
X161787028Y-86853367D01*
X161963367Y-86677028D01*
X162101915Y-86469676D01*
X162197349Y-86239279D01*
X162246000Y-85994690D01*
X162246000Y-85745310D01*
X162197349Y-85500721D01*
X162101915Y-85270324D01*
X161963367Y-85062972D01*
X161787028Y-84886633D01*
X161579676Y-84748085D01*
X161349279Y-84652651D01*
X161104690Y-84604000D01*
X160855310Y-84604000D01*
X160610721Y-84652651D01*
X160380324Y-84748085D01*
X160172972Y-84886633D01*
X159996633Y-85062972D01*
X159858085Y-85270324D01*
X159762651Y-85500721D01*
X159714000Y-85745310D01*
X159714000Y-85994690D01*
X159762651Y-86239279D01*
X159858085Y-86469676D01*
X159996633Y-86677028D01*
X160172972Y-86853367D01*
X160380324Y-86991915D01*
X160399800Y-86999982D01*
X160399800Y-87779674D01*
X159219674Y-88959800D01*
X148087768Y-88959800D01*
X148087353Y-88958798D01*
X147953073Y-88757833D01*
X147782167Y-88586927D01*
X147632447Y-88486888D01*
X147850000Y-88488072D01*
X147974482Y-88475812D01*
X148094180Y-88439502D01*
X148204494Y-88380537D01*
X148301185Y-88301185D01*
X148380537Y-88204494D01*
X148439502Y-88094180D01*
X148475812Y-87974482D01*
X148488072Y-87850000D01*
X148485000Y-87285750D01*
X148326250Y-87127000D01*
X147127000Y-87127000D01*
X147127000Y-87147000D01*
X146873000Y-87147000D01*
X146873000Y-87127000D01*
X145673750Y-87127000D01*
X145515000Y-87285750D01*
X145511928Y-87850000D01*
X141740200Y-87850000D01*
X141740200Y-87572564D01*
X141880970Y-87478505D01*
X142038505Y-87320970D01*
X142162279Y-87135729D01*
X142247536Y-86929900D01*
X142291000Y-86711394D01*
X142291000Y-86488606D01*
X142247536Y-86270100D01*
X142197790Y-86150000D01*
X145511928Y-86150000D01*
X145515000Y-86714250D01*
X145673750Y-86873000D01*
X146873000Y-86873000D01*
X146873000Y-85673750D01*
X147127000Y-85673750D01*
X147127000Y-86873000D01*
X148326250Y-86873000D01*
X148485000Y-86714250D01*
X148488072Y-86150000D01*
X148475812Y-86025518D01*
X148439502Y-85905820D01*
X148380537Y-85795506D01*
X148301185Y-85698815D01*
X148204494Y-85619463D01*
X148094180Y-85560498D01*
X147974482Y-85524188D01*
X147850000Y-85511928D01*
X147285750Y-85515000D01*
X147127000Y-85673750D01*
X146873000Y-85673750D01*
X146714250Y-85515000D01*
X146150000Y-85511928D01*
X146025518Y-85524188D01*
X145905820Y-85560498D01*
X145795506Y-85619463D01*
X145698815Y-85698815D01*
X145619463Y-85795506D01*
X145560498Y-85905820D01*
X145524188Y-86025518D01*
X145511928Y-86150000D01*
X142197790Y-86150000D01*
X142162279Y-86064271D01*
X142038505Y-85879030D01*
X141880970Y-85721495D01*
X141695729Y-85597721D01*
X141489900Y-85512464D01*
X141271394Y-85469000D01*
X141048606Y-85469000D01*
X140830100Y-85512464D01*
X140624271Y-85597721D01*
X140439030Y-85721495D01*
X140281495Y-85879030D01*
X140157721Y-86064271D01*
X140072464Y-86270100D01*
X140029000Y-86488606D01*
X139751000Y-86488606D01*
X139707536Y-86270100D01*
X139622279Y-86064271D01*
X139498505Y-85879030D01*
X139340970Y-85721495D01*
X139200200Y-85627436D01*
X139200200Y-84620326D01*
X139910327Y-83910200D01*
X150923349Y-83910200D01*
X150938290Y-83959454D01*
X151053489Y-84174975D01*
X151208520Y-84363881D01*
X151397426Y-84518912D01*
X151612947Y-84634110D01*
X151846801Y-84705049D01*
X152090000Y-84729002D01*
X152333200Y-84705049D01*
X152567054Y-84634110D01*
X152782575Y-84518912D01*
X152971481Y-84363881D01*
X153126512Y-84174974D01*
X153222485Y-83995420D01*
X153338046Y-84244321D01*
X153511514Y-84481729D01*
X153727965Y-84680733D01*
X153979081Y-84833686D01*
X154255211Y-84934709D01*
X154270974Y-84937358D01*
X154503000Y-84816217D01*
X154503000Y-83457000D01*
X154483000Y-83457000D01*
X154483000Y-83203000D01*
X154503000Y-83203000D01*
X154503000Y-81843783D01*
X154757000Y-81843783D01*
X154757000Y-83203000D01*
X154777000Y-83203000D01*
X154777000Y-83457000D01*
X154757000Y-83457000D01*
X154757000Y-84816217D01*
X154989026Y-84937358D01*
X155004789Y-84934709D01*
X155280919Y-84833686D01*
X155532035Y-84680733D01*
X155748486Y-84481729D01*
X155921954Y-84244321D01*
X156037515Y-83995420D01*
X156133489Y-84174975D01*
X156288520Y-84363881D01*
X156477426Y-84518912D01*
X156692947Y-84634110D01*
X156926801Y-84705049D01*
X157170000Y-84729002D01*
X157413200Y-84705049D01*
X157647054Y-84634110D01*
X157862575Y-84518912D01*
X158051481Y-84363881D01*
X158206512Y-84174974D01*
X158321710Y-83959453D01*
X158392649Y-83725599D01*
X158410600Y-83543339D01*
X158410600Y-83116660D01*
X158392649Y-82934400D01*
X158321710Y-82700546D01*
X158206512Y-82485025D01*
X158051481Y-82296119D01*
X157862574Y-82141088D01*
X157647053Y-82025890D01*
X157413199Y-81954951D01*
X157170000Y-81930998D01*
X156926800Y-81954951D01*
X156692946Y-82025890D01*
X156477425Y-82141088D01*
X156288519Y-82296119D01*
X156133488Y-82485026D01*
X156037515Y-82664580D01*
X155921954Y-82415679D01*
X155748486Y-82178271D01*
X155532035Y-81979267D01*
X155280919Y-81826314D01*
X155004789Y-81725291D01*
X154989026Y-81722642D01*
X154757000Y-81843783D01*
X154503000Y-81843783D01*
X154270974Y-81722642D01*
X154255211Y-81725291D01*
X153979081Y-81826314D01*
X153727965Y-81979267D01*
X153511514Y-82178271D01*
X153338046Y-82415679D01*
X153222486Y-82664579D01*
X153126512Y-82485025D01*
X152971481Y-82296119D01*
X152782574Y-82141088D01*
X152670200Y-82081023D01*
X152670200Y-66118490D01*
X152673006Y-66089999D01*
X152670200Y-66061508D01*
X152670200Y-66061499D01*
X152661805Y-65976261D01*
X152628628Y-65866893D01*
X152574753Y-65766099D01*
X152560630Y-65748890D01*
X152520416Y-65699889D01*
X152520413Y-65699886D01*
X152502248Y-65677752D01*
X152480114Y-65659587D01*
X151230418Y-64409892D01*
X151212248Y-64387752D01*
X151123901Y-64315247D01*
X151023107Y-64261372D01*
X150913739Y-64228195D01*
X150828501Y-64219800D01*
X150828491Y-64219800D01*
X150800000Y-64216994D01*
X150771509Y-64219800D01*
X147812487Y-64219800D01*
X147753210Y-64076694D01*
X147586099Y-63826594D01*
X147373406Y-63613901D01*
X147123306Y-63446790D01*
X146845410Y-63331681D01*
X146550396Y-63273000D01*
X146249604Y-63273000D01*
X145954590Y-63331681D01*
X145676694Y-63446790D01*
X145426594Y-63613901D01*
X145213901Y-63826594D01*
X145046790Y-64076694D01*
X144931681Y-64354590D01*
X144873000Y-64649604D01*
X144873000Y-64950396D01*
X144931681Y-65245410D01*
X145046790Y-65523306D01*
X145213901Y-65773406D01*
X145426594Y-65986099D01*
X145676694Y-66153210D01*
X145954590Y-66268319D01*
X146249604Y-66327000D01*
X146550396Y-66327000D01*
X146845410Y-66268319D01*
X147123306Y-66153210D01*
X147373406Y-65986099D01*
X147586099Y-65773406D01*
X147753210Y-65523306D01*
X147812487Y-65380200D01*
X150559674Y-65380200D01*
X151509801Y-66330328D01*
X151509800Y-82081022D01*
X151397425Y-82141088D01*
X151208519Y-82296119D01*
X151053488Y-82485026D01*
X150938290Y-82700547D01*
X150923349Y-82749800D01*
X139698490Y-82749800D01*
X139669999Y-82746994D01*
X139641508Y-82749800D01*
X139641499Y-82749800D01*
X139556261Y-82758195D01*
X139446893Y-82791372D01*
X139346099Y-82845247D01*
X139346097Y-82845248D01*
X139346098Y-82845248D01*
X139279889Y-82899584D01*
X139279886Y-82899587D01*
X139257752Y-82917752D01*
X139239587Y-82939886D01*
X138229887Y-83949587D01*
X138207753Y-83967752D01*
X138189588Y-83989886D01*
X138189584Y-83989890D01*
X138135248Y-84056099D01*
X138081373Y-84156893D01*
X138048196Y-84266261D01*
X138036994Y-84380000D01*
X138039801Y-84408500D01*
X138039800Y-85627435D01*
X137899030Y-85721495D01*
X137741495Y-85879030D01*
X137617721Y-86064271D01*
X137532464Y-86270100D01*
X137489000Y-86488606D01*
X136580200Y-86488606D01*
X136580200Y-81442349D01*
X145337256Y-81442349D01*
X145451118Y-81722090D01*
X145766296Y-81877961D01*
X146105826Y-81969349D01*
X146456661Y-81992741D01*
X146805319Y-81947240D01*
X147138400Y-81834594D01*
X147348882Y-81722090D01*
X147462744Y-81442349D01*
X146400000Y-80379605D01*
X145337256Y-81442349D01*
X136580200Y-81442349D01*
X136580200Y-80256661D01*
X144607259Y-80256661D01*
X144652760Y-80605319D01*
X144765406Y-80938400D01*
X144877910Y-81148882D01*
X145157651Y-81262744D01*
X146220395Y-80200000D01*
X146579605Y-80200000D01*
X147642349Y-81262744D01*
X147922090Y-81148882D01*
X148077961Y-80833704D01*
X148169349Y-80494174D01*
X148192741Y-80143339D01*
X148147240Y-79794681D01*
X148034594Y-79461600D01*
X147922090Y-79251118D01*
X147642349Y-79137256D01*
X146579605Y-80200000D01*
X146220395Y-80200000D01*
X145157651Y-79137256D01*
X144877910Y-79251118D01*
X144722039Y-79566296D01*
X144630651Y-79905826D01*
X144607259Y-80256661D01*
X136580200Y-80256661D01*
X136580200Y-78957651D01*
X145337256Y-78957651D01*
X146400000Y-80020395D01*
X147462744Y-78957651D01*
X147348882Y-78677910D01*
X147033704Y-78522039D01*
X146694174Y-78430651D01*
X146343339Y-78407259D01*
X145994681Y-78452760D01*
X145661600Y-78565406D01*
X145451118Y-78677910D01*
X145337256Y-78957651D01*
X136580200Y-78957651D01*
X136580200Y-63240326D01*
X137240326Y-62580200D01*
X159419801Y-62580200D01*
X159419800Y-67771176D01*
X159150000Y-67771176D01*
X159076095Y-67778455D01*
X159005030Y-67800012D01*
X158939537Y-67835019D01*
X158882131Y-67882131D01*
X158835019Y-67939537D01*
X158800012Y-68005030D01*
X158778455Y-68076095D01*
X158771176Y-68150000D01*
X158771176Y-69850000D01*
X158778455Y-69923905D01*
X158800012Y-69994970D01*
X158835019Y-70060463D01*
X158882131Y-70117869D01*
X158939537Y-70164981D01*
X159005030Y-70199988D01*
X159076095Y-70221545D01*
X159150000Y-70228824D01*
X159419800Y-70228824D01*
X159419801Y-81969208D01*
X159232946Y-82025890D01*
X159017425Y-82141088D01*
X158828519Y-82296119D01*
X158673488Y-82485026D01*
X158558290Y-82700547D01*
X158487351Y-82934401D01*
X158469400Y-83116661D01*
X158469400Y-83543340D01*
X158487351Y-83725600D01*
X158558290Y-83959454D01*
X158673489Y-84174975D01*
X158828520Y-84363881D01*
X159017426Y-84518912D01*
X159232947Y-84634110D01*
X159466801Y-84705049D01*
X159710000Y-84729002D01*
X159953200Y-84705049D01*
X160187054Y-84634110D01*
X160402575Y-84518912D01*
X160591481Y-84363881D01*
X160746512Y-84174974D01*
X160861710Y-83959453D01*
X160932649Y-83725599D01*
X160950600Y-83543339D01*
X160950600Y-83116661D01*
X161009400Y-83116661D01*
X161009400Y-83543340D01*
X161027351Y-83725600D01*
X161098290Y-83959454D01*
X161213489Y-84174975D01*
X161368520Y-84363881D01*
X161557426Y-84518912D01*
X161772947Y-84634110D01*
X162006801Y-84705049D01*
X162250000Y-84729002D01*
X162493200Y-84705049D01*
X162727054Y-84634110D01*
X162942575Y-84518912D01*
X163131481Y-84363881D01*
X163286512Y-84174974D01*
X163401710Y-83959453D01*
X163472649Y-83725599D01*
X163490600Y-83543339D01*
X163490600Y-83116661D01*
X163549400Y-83116661D01*
X163549400Y-83543340D01*
X163567351Y-83725600D01*
X163638290Y-83959454D01*
X163753489Y-84174975D01*
X163908520Y-84363881D01*
X164097426Y-84518912D01*
X164312947Y-84634110D01*
X164546801Y-84705049D01*
X164790000Y-84729002D01*
X165033200Y-84705049D01*
X165267054Y-84634110D01*
X165482575Y-84518912D01*
X165671481Y-84363881D01*
X165826512Y-84174974D01*
X165941710Y-83959453D01*
X166012649Y-83725599D01*
X166030600Y-83543339D01*
X166030600Y-83116661D01*
X166089400Y-83116661D01*
X166089400Y-83543340D01*
X166107351Y-83725600D01*
X166178290Y-83959454D01*
X166293489Y-84174975D01*
X166448520Y-84363881D01*
X166637426Y-84518912D01*
X166852947Y-84634110D01*
X167086801Y-84705049D01*
X167330000Y-84729002D01*
X167573200Y-84705049D01*
X167807054Y-84634110D01*
X168022575Y-84518912D01*
X168211481Y-84363881D01*
X168366512Y-84174974D01*
X168481710Y-83959453D01*
X168552649Y-83725599D01*
X168570600Y-83543339D01*
X168570600Y-83116661D01*
X168629400Y-83116661D01*
X168629400Y-83543340D01*
X168647351Y-83725600D01*
X168718290Y-83959454D01*
X168833489Y-84174975D01*
X168988520Y-84363881D01*
X169177426Y-84518912D01*
X169392947Y-84634110D01*
X169626801Y-84705049D01*
X169870000Y-84729002D01*
X170113200Y-84705049D01*
X170347054Y-84634110D01*
X170562575Y-84518912D01*
X170751481Y-84363881D01*
X170906512Y-84174974D01*
X171021710Y-83959453D01*
X171092649Y-83725599D01*
X171110600Y-83543339D01*
X171110600Y-83116660D01*
X171092649Y-82934400D01*
X171021710Y-82700546D01*
X170906512Y-82485025D01*
X170751481Y-82296119D01*
X170562574Y-82141088D01*
X170347053Y-82025890D01*
X170113199Y-81954951D01*
X169870000Y-81930998D01*
X169626800Y-81954951D01*
X169392946Y-82025890D01*
X169177425Y-82141088D01*
X168988519Y-82296119D01*
X168833488Y-82485026D01*
X168718290Y-82700547D01*
X168647351Y-82934401D01*
X168629400Y-83116661D01*
X168570600Y-83116661D01*
X168570600Y-83116660D01*
X168552649Y-82934400D01*
X168481710Y-82700546D01*
X168366512Y-82485025D01*
X168211481Y-82296119D01*
X168022574Y-82141088D01*
X167807053Y-82025890D01*
X167573199Y-81954951D01*
X167330000Y-81930998D01*
X167086800Y-81954951D01*
X166852946Y-82025890D01*
X166637425Y-82141088D01*
X166448519Y-82296119D01*
X166293488Y-82485026D01*
X166178290Y-82700547D01*
X166107351Y-82934401D01*
X166089400Y-83116661D01*
X166030600Y-83116661D01*
X166030600Y-83116660D01*
X166012649Y-82934400D01*
X165941710Y-82700546D01*
X165826512Y-82485025D01*
X165671481Y-82296119D01*
X165482574Y-82141088D01*
X165370200Y-82081023D01*
X165370200Y-79450326D01*
X169310114Y-75510413D01*
X169332248Y-75492248D01*
X169350413Y-75470114D01*
X169350416Y-75470111D01*
X169404752Y-75403902D01*
X169404753Y-75403901D01*
X169458628Y-75303107D01*
X169491805Y-75193739D01*
X169500200Y-75108501D01*
X169500200Y-75108492D01*
X169503006Y-75080001D01*
X169500200Y-75051510D01*
X169500200Y-70087768D01*
X169501202Y-70087353D01*
X169702167Y-69953073D01*
X169873073Y-69782167D01*
X170007353Y-69581202D01*
X170056231Y-69463202D01*
X170115843Y-69631252D01*
X170264822Y-69881355D01*
X170459731Y-70097588D01*
X170693080Y-70271641D01*
X170955901Y-70396825D01*
X171103110Y-70441476D01*
X171333000Y-70320155D01*
X171333000Y-69127000D01*
X171313000Y-69127000D01*
X171313000Y-68873000D01*
X171333000Y-68873000D01*
X171333000Y-67679845D01*
X171103110Y-67558524D01*
X170955901Y-67603175D01*
X170693080Y-67728359D01*
X170459731Y-67902412D01*
X170264822Y-68118645D01*
X170115843Y-68368748D01*
X170056231Y-68536798D01*
X170007353Y-68418798D01*
X169873073Y-68217833D01*
X169702167Y-68046927D01*
X169501202Y-67912647D01*
X169277903Y-67820153D01*
X169040849Y-67773000D01*
X168799151Y-67773000D01*
X168562097Y-67820153D01*
X168338798Y-67912647D01*
X168137833Y-68046927D01*
X167966927Y-68217833D01*
X167832647Y-68418798D01*
X167740153Y-68642097D01*
X167693000Y-68879151D01*
X167693000Y-69120849D01*
X167740153Y-69357903D01*
X167832647Y-69581202D01*
X167966927Y-69782167D01*
X168137833Y-69953073D01*
X168338798Y-70087353D01*
X168339800Y-70087768D01*
X168339801Y-74839672D01*
X164399892Y-78779582D01*
X164377752Y-78797752D01*
X164305247Y-78886100D01*
X164251372Y-78986894D01*
X164218195Y-79096262D01*
X164209800Y-79181500D01*
X164209800Y-79181509D01*
X164206994Y-79210000D01*
X164209800Y-79238491D01*
X164209801Y-82081022D01*
X164097425Y-82141088D01*
X163908519Y-82296119D01*
X163753488Y-82485026D01*
X163638290Y-82700547D01*
X163567351Y-82934401D01*
X163549400Y-83116661D01*
X163490600Y-83116661D01*
X163490600Y-83116660D01*
X163472649Y-82934400D01*
X163401710Y-82700546D01*
X163286512Y-82485025D01*
X163131481Y-82296119D01*
X162942574Y-82141088D01*
X162830200Y-82081023D01*
X162830200Y-77990326D01*
X165470115Y-75350412D01*
X165492248Y-75332248D01*
X165510413Y-75310114D01*
X165510416Y-75310111D01*
X165564752Y-75243902D01*
X165564753Y-75243901D01*
X165618628Y-75143107D01*
X165651805Y-75033739D01*
X165660200Y-74948501D01*
X165660200Y-74948492D01*
X165663006Y-74920001D01*
X165660200Y-74891510D01*
X165660200Y-70087768D01*
X165661202Y-70087353D01*
X165862167Y-69953073D01*
X166033073Y-69782167D01*
X166167353Y-69581202D01*
X166259847Y-69357903D01*
X166307000Y-69120849D01*
X166307000Y-68879151D01*
X166259847Y-68642097D01*
X166167353Y-68418798D01*
X166033073Y-68217833D01*
X165862167Y-68046927D01*
X165661202Y-67912647D01*
X165437903Y-67820153D01*
X165200849Y-67773000D01*
X164959151Y-67773000D01*
X164722097Y-67820153D01*
X164498798Y-67912647D01*
X164297833Y-68046927D01*
X164126927Y-68217833D01*
X163992647Y-68418798D01*
X163943769Y-68536798D01*
X163884157Y-68368748D01*
X163735178Y-68118645D01*
X163540269Y-67902412D01*
X163306920Y-67728359D01*
X163044099Y-67603175D01*
X162896890Y-67558524D01*
X162667000Y-67679845D01*
X162667000Y-68873000D01*
X162687000Y-68873000D01*
X162687000Y-69127000D01*
X162667000Y-69127000D01*
X162667000Y-70320155D01*
X162896890Y-70441476D01*
X163044099Y-70396825D01*
X163306920Y-70271641D01*
X163540269Y-70097588D01*
X163735178Y-69881355D01*
X163884157Y-69631252D01*
X163943769Y-69463202D01*
X163992647Y-69581202D01*
X164126927Y-69782167D01*
X164297833Y-69953073D01*
X164498798Y-70087353D01*
X164499801Y-70087768D01*
X164499800Y-74679673D01*
X161859887Y-77319587D01*
X161837753Y-77337752D01*
X161819588Y-77359886D01*
X161819584Y-77359890D01*
X161765248Y-77426099D01*
X161711373Y-77526893D01*
X161678196Y-77636261D01*
X161666994Y-77750000D01*
X161669801Y-77778501D01*
X161669800Y-82081022D01*
X161557425Y-82141088D01*
X161368519Y-82296119D01*
X161213488Y-82485026D01*
X161098290Y-82700547D01*
X161027351Y-82934401D01*
X161009400Y-83116661D01*
X160950600Y-83116661D01*
X160950600Y-83116660D01*
X160932649Y-82934400D01*
X160861710Y-82700546D01*
X160746512Y-82485025D01*
X160591481Y-82296119D01*
X160580200Y-82286861D01*
X160580200Y-70228824D01*
X160850000Y-70228824D01*
X160923905Y-70221545D01*
X160994970Y-70199988D01*
X161060463Y-70164981D01*
X161117869Y-70117869D01*
X161164981Y-70060463D01*
X161199988Y-69994970D01*
X161221545Y-69923905D01*
X161228824Y-69850000D01*
X161228824Y-69686620D01*
X161344822Y-69881355D01*
X161539731Y-70097588D01*
X161773080Y-70271641D01*
X162035901Y-70396825D01*
X162183110Y-70441476D01*
X162413000Y-70320155D01*
X162413000Y-69127000D01*
X162393000Y-69127000D01*
X162393000Y-68873000D01*
X162413000Y-68873000D01*
X162413000Y-67679845D01*
X162183110Y-67558524D01*
X162035901Y-67603175D01*
X161773080Y-67728359D01*
X161539731Y-67902412D01*
X161344822Y-68118645D01*
X161228824Y-68313380D01*
X161228824Y-68150000D01*
X161221545Y-68076095D01*
X161199988Y-68005030D01*
X161164981Y-67939537D01*
X161117869Y-67882131D01*
X161060463Y-67835019D01*
X160994970Y-67800012D01*
X160923905Y-67778455D01*
X160850000Y-67771176D01*
X160580200Y-67771176D01*
X160580200Y-62580200D01*
X173419801Y-62580200D01*
X173419800Y-67771176D01*
X173150000Y-67771176D01*
X173076095Y-67778455D01*
X173005030Y-67800012D01*
X172939537Y-67835019D01*
X172882131Y-67882131D01*
X172835019Y-67939537D01*
X172800012Y-68005030D01*
X172778455Y-68076095D01*
X172771176Y-68150000D01*
X172771176Y-68313380D01*
X172655178Y-68118645D01*
X172460269Y-67902412D01*
X172226920Y-67728359D01*
X171964099Y-67603175D01*
X171816890Y-67558524D01*
X171587000Y-67679845D01*
X171587000Y-68873000D01*
X171607000Y-68873000D01*
X171607000Y-69127000D01*
X171587000Y-69127000D01*
X171587000Y-70320155D01*
X171816890Y-70441476D01*
X171964099Y-70396825D01*
X172226920Y-70271641D01*
X172460269Y-70097588D01*
X172655178Y-69881355D01*
X172771176Y-69686620D01*
X172771176Y-69850000D01*
X172778455Y-69923905D01*
X172800012Y-69994970D01*
X172835019Y-70060463D01*
X172882131Y-70117869D01*
X172939537Y-70164981D01*
X173005030Y-70199988D01*
X173076095Y-70221545D01*
X173150000Y-70228824D01*
X174850000Y-70228824D01*
X174923905Y-70221545D01*
X174994970Y-70199988D01*
X175060463Y-70164981D01*
X175117869Y-70117869D01*
X175164981Y-70060463D01*
X175199988Y-69994970D01*
X175221545Y-69923905D01*
X175228824Y-69850000D01*
X175228824Y-68150000D01*
X175221545Y-68076095D01*
X175199988Y-68005030D01*
X175164981Y-67939537D01*
X175117869Y-67882131D01*
X175060463Y-67835019D01*
X174994970Y-67800012D01*
X174923905Y-67778455D01*
X174850000Y-67771176D01*
X174580200Y-67771176D01*
X174580200Y-65000000D01*
X181495572Y-65000000D01*
X181498000Y-65024653D01*
X181498001Y-70975337D01*
X181495572Y-71000000D01*
X181505264Y-71098409D01*
X181533969Y-71193036D01*
X181580583Y-71280245D01*
X181643316Y-71356684D01*
X181719755Y-71419417D01*
X181806964Y-71466031D01*
X181901591Y-71494736D01*
X181975347Y-71502000D01*
X182000000Y-71504428D01*
X182024653Y-71502000D01*
X191975347Y-71502000D01*
X192000000Y-71504428D01*
X192024653Y-71502000D01*
X192098409Y-71494736D01*
X192193036Y-71466031D01*
X192280245Y-71419417D01*
X192356684Y-71356684D01*
X192419417Y-71280245D01*
X192466031Y-71193036D01*
X192494736Y-71098409D01*
X192504428Y-71000000D01*
X192502000Y-70975347D01*
X192502000Y-65024653D01*
X192504428Y-65000000D01*
X192494736Y-64901591D01*
X192466031Y-64806964D01*
X192419417Y-64719755D01*
X192356684Y-64643316D01*
X192280245Y-64580583D01*
X192193036Y-64533969D01*
X192098409Y-64505264D01*
X192024653Y-64498000D01*
X192000000Y-64495572D01*
X191975347Y-64498000D01*
X182024653Y-64498000D01*
X182000000Y-64495572D01*
X181975347Y-64498000D01*
X181901591Y-64505264D01*
X181806964Y-64533969D01*
X181719755Y-64580583D01*
X181643316Y-64643316D01*
X181580583Y-64719755D01*
X181533969Y-64806964D01*
X181505264Y-64901591D01*
X181495572Y-65000000D01*
X174580200Y-65000000D01*
X174580200Y-62580200D01*
X196759674Y-62580200D01*
X197419800Y-63240326D01*
X197419801Y-90759672D01*
X197219674Y-90959800D01*
X196982187Y-90959800D01*
X196884719Y-90813930D01*
X196726070Y-90655281D01*
X196539519Y-90530631D01*
X196332234Y-90444771D01*
X196112182Y-90401000D01*
X195887818Y-90401000D01*
X195667766Y-90444771D01*
X195460481Y-90530631D01*
X195273930Y-90655281D01*
X195115281Y-90813930D01*
X194990631Y-91000481D01*
X194904771Y-91207766D01*
X194861000Y-91427818D01*
X194861000Y-91652182D01*
X194904771Y-91872234D01*
X194990631Y-92079519D01*
X195115281Y-92266070D01*
X195273930Y-92424719D01*
X195460481Y-92549369D01*
X195667766Y-92635229D01*
X195887818Y-92679000D01*
X196112182Y-92679000D01*
X196332234Y-92635229D01*
X196539519Y-92549369D01*
X196726070Y-92424719D01*
X196884719Y-92266070D01*
X196982187Y-92120200D01*
X197431509Y-92120200D01*
X197460000Y-92123006D01*
X197488491Y-92120200D01*
X197488501Y-92120200D01*
X197573739Y-92111805D01*
X197683107Y-92078628D01*
X197783901Y-92024753D01*
X197872248Y-91952248D01*
X197890417Y-91930109D01*
X198390113Y-91430413D01*
X198412248Y-91412248D01*
X198430413Y-91390114D01*
X198430416Y-91390111D01*
X198484752Y-91323902D01*
X198484753Y-91323901D01*
X198538628Y-91223107D01*
X198571805Y-91113739D01*
X198580200Y-91028501D01*
X198580200Y-91028492D01*
X198583006Y-91000001D01*
X198580200Y-90971510D01*
X198580200Y-63028501D01*
X198583007Y-63000000D01*
X198571805Y-62886260D01*
X198538628Y-62776893D01*
X198484753Y-62676098D01*
X198430416Y-62609890D01*
X198412248Y-62587752D01*
X198390109Y-62569583D01*
X197430418Y-61609892D01*
X197412248Y-61587752D01*
X197323901Y-61515247D01*
X197223107Y-61461372D01*
X197113739Y-61428195D01*
X197028501Y-61419800D01*
X197028491Y-61419800D01*
X197000000Y-61416994D01*
X196971509Y-61419800D01*
X174028501Y-61419800D01*
X174000000Y-61416993D01*
X173971500Y-61419800D01*
X160028501Y-61419800D01*
X160000000Y-61416993D01*
X159971500Y-61419800D01*
X137028501Y-61419800D01*
X137000000Y-61416993D01*
X136886260Y-61428195D01*
X136776893Y-61461372D01*
X136676098Y-61515247D01*
X136628045Y-61554684D01*
X136587752Y-61587752D01*
X136569582Y-61609892D01*
X135609892Y-62569582D01*
X135587752Y-62587752D01*
X135515247Y-62676100D01*
X135461372Y-62776894D01*
X135428195Y-62886262D01*
X135419800Y-62971500D01*
X135419800Y-62971509D01*
X135416994Y-63000000D01*
X135127000Y-63000000D01*
X135127000Y-61127000D01*
X198873000Y-61127000D01*
X198873000Y-118873000D01*
G37*
%TD.AperFunction*%
%TD*%
M02*
