M48
; DRILL file {KiCad (5.1.12)-1} date 12/22/21 01:37:06
; FORMAT={-:-/ absolute / inch / decimal}
; #@! TF.CreationDate,2021-12-22T01:37:06+01:00
; #@! TF.GenerationSoftware,Kicad,Pcbnew,(5.1.12)-1
; #@! TF.FileFunction,Plated,1,2,PTH
FMAT,2
INCH
T1C0.0300
T2C0.0315
T3C0.0390
T4C0.0394
T5C0.0400
T6C0.0472
T7C0.0520
%
G90
G05
T1
X7.4165Y-3.5039
X7.4165Y-3.6039
X7.5165Y-3.5039
X7.5165Y-3.6039
X7.6165Y-3.5039
X7.6165Y-3.6039
X7.7165Y-3.5039
X7.7165Y-3.6039
T2
X4.4685Y-3.7008
X4.7638Y-3.8189
T3
X5.5693Y-4.4276
X5.5693Y-4.5276
X5.6693Y-4.4776
T4
X4.6063Y-2.7559
X4.6063Y-2.9528
X4.7575Y-3.4094
X5.0575Y-3.4094
X5.4575Y-3.4094
X5.5575Y-3.4094
X5.7638Y-2.5512
X5.7638Y-3.1575
X5.7874Y-3.4252
X5.7874Y-3.5252
X5.7874Y-3.6252
X5.7874Y-3.7252
X6.0992Y-4.1732
X6.0992Y-4.3701
X6.1992Y-4.1732
X6.1992Y-4.3701
X6.2992Y-2.7165
X6.2992Y-4.1732
X6.2992Y-4.3701
X6.3992Y-2.7165
X6.4992Y-2.7165
X6.6504Y-2.7165
X6.7504Y-2.7165
X6.8504Y-2.7165
T5
X5.9878Y-3.2807
X5.9878Y-3.8807
X6.0878Y-3.2807
X6.0878Y-3.8807
X6.1878Y-3.2807
X6.1878Y-3.8807
X6.2878Y-3.2807
X6.2878Y-3.8807
X6.3378Y-3.3807
X6.3878Y-3.2807
X6.3878Y-3.8807
X6.4378Y-3.3807
X6.4878Y-3.2807
X6.4878Y-3.8807
X6.5878Y-3.2807
X6.5878Y-3.8807
X6.6878Y-3.2807
X6.6878Y-3.8807
X6.7878Y-3.2807
X6.7878Y-3.8807
X6.8878Y-3.2807
X6.8878Y-3.8807
X6.9878Y-3.2807
X6.9878Y-3.8807
X7.0878Y-3.2807
X7.0878Y-3.8807
T6
X4.0457Y-4.5669
X4.1339Y-3.0709
X4.1339Y-3.6709
X4.5969Y-4.1732
X4.6457Y-4.5669
X5.1969Y-4.1732
T7
X4.1339Y-2.6772
X4.2126Y-4.1732
X4.3307Y-2.6772
X4.4094Y-4.1732
T0
M30
